<?xml  version="1.0" encoding="UTF-8"?>
<!DOCTYPE svg PUBLIC "-//W3C//DTD SVG 1.0//EN" "http://www.w3.org/TR/2001/REC-SVG-20010904/DTD/svg10.dtd" >
<svg xmlns="http://www.w3.org/2000/svg" >
<metadata>
<version>1.0</version>
<id><![CDATA[Frutiger Serif LT W01 Light It]]></id>
<vendor>Monotype Imaging Inc.</vendor>
<credits>
<name>Fonts.com WebFonts</name>
<URL>http://webfonts.fonts.com</URL>
<role>Home of the Web fonts</role>
</credits>
<license>
<URL>http://webfonts.fonts.com/Legal</URL>
</license>
<copyright><![CDATA[Copyright © 2008 Linotype GmbH, www.linotype.com. All rights reserved. This font software may not be reproduced, modified, disclosed or transferred without the express written approval of Linotype GmbH. Frutiger is a trademark of Linotype GmbH and may be registered in certain jurisdictions. This typeface is original artwork of Adrian Frutiger and Linotype Design Studio. The design may be protected in certain jurisdictions.]]></copyright>
<trademark><![CDATA[Frutiger is a trademark of Linotype GmbH and may be registered in certain jurisdictions.]]></trademark>
<licensee>
<name></name>
</licensee>
</metadata>
<defs >
<font horiz-adv-x="511" id="0aeec30f-17c9-4103-a1c1-f3479e16f9fb">
<font-face font-family="" panose-1="2 10 3 3 8 4 6 9 2 3" ascent="905" descent="-247" units-per-em="1000" alphabetic="0">
</font-face>
<missing-glyph horiz-adv-x="0" />

<glyph unicode="&#xA;" />
<glyph unicode="&#xD;" horiz-adv-x="0" />
<glyph unicode=" " horiz-adv-x="235" />
<glyph unicode="!" horiz-adv-x="290" d="M113 -19Q92 -19 82 -6T71 23Q71 49 85 65T118 81Q137 81 148 69T159 40Q159 12 144 -3T113 -19ZM164 173Q163 168 156 168H143Q136 168 136 173L248 617Q256 646 264 661T293 676Q304 676 313 670T322 653Q322 642 313 610T287 530L164 173Z"  />
<glyph unicode="&quot;" horiz-adv-x="399" d="M210 465H196L216 584Q221 614 224 630T232 660Q239 683 247 693T268 703Q285 703 285 683Q285 672 278 649T256 586L210 465ZM330 465H317L336 584Q341 614 344 630T351 660Q358 683 367 693T388 703Q406 703 406 683Q406 664 376 586L330 465Z"  />
<glyph unicode="#" horiz-adv-x="529" d="M450 404L391 249H476L469 215H378L301 0H267L344 215H178L100 0H67L144 215H60L67 249H157L216 404H130L138 439H228L308 654H341L263 439H428L508 654H542L463 439H548L540 404H450ZM249 404L191 249H357L416 404H249Z"  />
<glyph unicode="$" horiz-adv-x="529" d="M193 8Q163 9 126 15T63 28Q59 30 59 35L82 186Q83 190 90 190Q97 190 97 187Q100 154 101 133T104 97T108 75T114 62Q119 54 142 47T201 38L270 320L266 325Q245 345 227 364T195 405T175 449T167 499Q167 539 184 570T230 621T292 652T359 664L377 737Q378 741 385 741L404 742Q409 742 409 738L390 664Q413 663 442 659T495 647Q499 645 499 640Q497 629 495 612T490 576T485 537T481 503Q481 499 473 499Q466 499 466 501Q463 546 459 573T448 614Q443 622 424 628T383 636L312 350Q336 328 357 307T393 263T418 216T427 165Q427 125 411 96T368 48T304 20T227 9L203 -99Q202 -104 196 -104H173Q167 -104 167 -99L193 8ZM216 511Q216 474 234 440T286 373L352 637Q285 635 251 601T216 511ZM378 159Q378 201 353 236T297 301L234 37Q265 38 291 44T336 65T367 103T378 159Z"  />
<glyph unicode="%" horiz-adv-x="823" d="M698 654H738L164 0H122L698 654ZM150 422Q150 458 161 500T194 578T245 639T313 664Q359 664 378 639T398 571Q398 535 387 493T354 414T302 353T236 328Q190 328 170 356T150 422ZM194 432Q194 400 202 376T235 351Q262 351 283 373T320 429T344 500T353 570Q353 599 344 621T309 644Q279 644 258 620T222 562T201 492T194 432ZM470 79Q470 115 481 157T514 235T565 296T633 321Q680 321 699 296T718 228Q718 192 707 150T674 71T623 10T557 -15Q511 -15 491 13T470 79ZM514 89Q514 57 522 33T556 8Q582 8 603 30T640 86T664 157T673 227Q673 256 664 278T629 301Q600 301 578 277T542 219T521 149T514 89Z"  />
<glyph unicode="&amp;" horiz-adv-x="693" d="M298 387Q327 399 352 415T397 451T427 497T438 555Q438 589 419 612T360 636Q331 636 311 627T278 602T259 565T253 521Q253 461 298 387ZM425 112Q407 135 386 165T343 227T300 291T263 350Q228 334 202 316T157 276T129 224T119 155Q119 131 127 109T150 68T188 39T238 28Q295 28 338 49T425 112ZM525 66Q539 47 553 39T581 26L635 10Q638 8 638 2Q638 -4 634 -4Q603 -2 571 0T503 2L441 89Q383 39 333 15T222 -10Q189 -10 161 1T111 32T77 81T65 148Q65 229 112 281T251 371Q228 409 215 445T202 515Q202 550 215 577T250 624T301 653T363 663Q399 663 423 655T462 632T483 599T490 560Q490 523 473 493T429 439T371 397T311 366Q324 344 343 314T384 254T427 194T464 145Q513 201 535 251T558 327Q558 334 545 339T499 355L492 357Q489 358 489 363Q489 369 493 369Q512 367 541 365T593 362Q619 362 640 364T682 369Q684 369 684 367T685 363Q685 358 682 357L663 351Q633 341 623 336T605 318Q590 284 559 231T479 125L525 66Z"  />
<glyph unicode="&apos;" horiz-adv-x="276" d="M210 465H196L215 584Q220 614 223 630T231 660Q238 683 247 693T268 703Q285 703 285 683Q285 672 278 649T256 586L210 465Z"  />
<glyph unicode="(" horiz-adv-x="352" d="M200 -193Q200 -196 197 -196H186Q181 -196 179 -192Q142 -121 115 -30T88 173Q88 228 101 283T138 392T190 494T253 586T319 664T383 725Q389 729 393 729H404Q408 729 408 725Q359 674 311 613T225 479T164 324T140 147Q140 99 145 51T159 -41T178 -124T200 -193Z"  />
<glyph unicode=")" horiz-adv-x="352" d="M175 726Q175 729 178 729H189Q194 729 196 725Q233 654 260 563T287 361Q287 278 258 196T185 40T89 -94T-8 -192Q-14 -196 -18 -196H-28Q-32 -196 -32 -192Q17 -141 64 -80T150 54T211 209T235 386Q235 435 230 482T216 574T197 657T175 726Z"  />
<glyph unicode="*" horiz-adv-x="522" d="M338 464L422 315Q424 311 424 309Q424 307 418 304L384 289Q381 288 379 288Q377 288 375 293L323 457L219 322Q216 319 213 319Q211 319 208 321L182 346Q178 350 178 353Q178 355 182 359L313 468L168 537Q163 539 163 542Q163 545 165 547L184 575Q187 579 189 579Q191 579 193 577L319 481L334 652Q334 657 340 657L377 649Q382 648 382 644L337 477L489 525Q494 525 496 519L504 482Q504 477 498 477L338 464Z"  />
<glyph unicode="+" horiz-adv-x="529" d="M282 219V2H246V219H25V249H246V466H282V249H504V219H282Z"  />
<glyph unicode="&#x2c;" horiz-adv-x="261" d="M80 58Q88 75 95 82T114 89Q124 89 133 83T143 66Q143 52 136 39T109 1L9 -131Q-6 -131 -6 -125L80 58Z"  />
<glyph unicode="-" horiz-adv-x="351" d="M72 239Q67 239 67 245L73 266Q74 272 80 272H303Q308 272 308 267L303 246Q302 239 296 239H72Z"  />
<glyph unicode="." horiz-adv-x="261" d="M102 -19Q81 -19 71 -6T60 23Q60 49 74 65T107 81Q127 81 137 69T148 40Q148 12 133 -3T102 -19Z"  />
<glyph unicode="/" horiz-adv-x="386" d="M389 674H431L98 -16H52L389 674Z"  />
<glyph unicode="0" horiz-adv-x="529" d="M83 162Q83 213 92 270T120 384T165 493T225 585T300 648T388 672Q432 672 459 658T500 619T519 565T524 504Q524 454 516 397T490 281T448 170T388 75T312 10T218 -15Q177 -15 151 1T110 42T89 98T83 162ZM135 201Q135 163 139 130T153 73T181 34T225 19Q266 19 300 41T362 99T410 182T445 281T466 384T473 481Q473 510 469 539T455 591T427 629T381 644Q340 644 306 620T245 557T197 469T163 371T142 277T135 201Z"  />
<glyph unicode="1" horiz-adv-x="529" d="M375 567Q365 531 353 480T326 374T299 262T274 160T257 82T250 43Q250 37 263 32T311 17L337 9Q340 7 340 3Q340 -4 336 -4Q303 0 276 1T214 2Q195 2 169 1T107 -4Q104 -4 104 3Q104 8 107 9L127 15Q148 21 161 25T181 34T192 42T198 51Q207 85 217 126T237 209T256 286T271 345Q277 370 287 409T306 488T322 560T329 601Q329 612 307 618T221 629Q219 631 219 636Q219 643 222 643Q274 644 314 649T398 663Q404 663 404 658Q397 641 391 622T375 567Z"  />
<glyph unicode="2" horiz-adv-x="529" d="M371 -4Q345 -2 326 -1T287 1T249 2T203 2Q149 2 99 2T-6 -3Q-9 -3 -9 4L-4 30Q86 97 163 158T296 278T384 394T416 511Q416 571 386 601T307 631Q226 631 157 561Q153 557 148 557Q143 557 137 562T131 572Q164 615 210 644T321 673Q353 673 380 665T428 638T461 591T473 522Q473 459 439 398T349 279T219 162T67 47L66 43L331 46Q346 46 360 64T391 117L400 136Q401 139 404 139Q407 139 411 138T415 136Q412 125 408 110T399 79T391 47T385 22L381 2Q380 -4 371 -4Z"  />
<glyph unicode="3" horiz-adv-x="529" d="M33 14Q84 14 143 24T252 59T337 122T371 221Q371 255 358 279T322 319T269 342T205 349Q199 349 199 360Q199 367 200 368T206 371Q240 374 273 386T334 418T378 467T395 535Q395 577 369 605T295 633Q265 633 236 625T176 597Q169 593 167 593Q163 593 159 599T155 610Q187 639 225 656T309 673Q381 673 416 638T452 550Q452 510 438 480T401 428T348 392T287 369V366Q314 363 340 354T387 329T419 289T432 232Q432 184 414 147T366 82T295 36T210 6T121 -10T36 -15Q33 -15 29 -12T25 2Q25 10 27 12T33 14Z"  />
<glyph unicode="4" horiz-adv-x="529" d="M418 586H415Q333 501 249 406T90 221H335L418 586ZM292 49Q297 64 306 97T326 182H41Q35 182 35 187L41 211Q43 219 48 224Q74 253 107 291T177 372T253 457T330 540T401 614T461 672L474 673Q484 673 484 668Q480 652 475 631T465 588T455 545T446 506L385 221H492Q498 221 498 216L492 189Q491 182 485 182H376Q365 130 357 92T349 44Q349 37 362 32T413 18L436 11Q439 9 439 3Q439 -4 435 -4Q402 0 380 1T326 2Q291 2 264 1T202 -4Q199 -4 199 3Q199 10 203 11L220 16Q244 23 257 27T278 35T288 41T292 49Z"  />
<glyph unicode="5" horiz-adv-x="529" d="M62 -15Q59 -15 56 -12T53 5Q53 10 56 12T62 14Q122 20 181 39T289 91T366 171T396 281Q396 325 381 352T341 394T288 414T231 420Q210 420 189 418T153 413Q148 413 148 418L225 654Q226 659 234 659Q263 657 293 657T346 656Q365 656 380 656T412 657T447 659T492 663Q497 663 497 658Q492 635 491 618T487 580Q486 576 479 576Q473 576 472 580L466 603Q466 606 463 608T448 611T415 613T354 614Q319 614 290 613T248 609L193 452Q207 454 221 455T256 457Q296 457 332 448T395 419T438 368T454 294Q454 213 416 156T319 63T192 9T62 -15Z"  />
<glyph unicode="6" horiz-adv-x="529" d="M501 677Q506 677 510 672T514 660Q514 655 508 652Q391 609 301 526T164 324H168Q190 356 227 379T318 402Q360 402 389 388T437 352T464 300T473 240Q473 184 456 137T408 56T336 4T249 -15Q204 -15 173 0T122 42T94 102T85 173Q85 258 121 338T216 486T349 603T501 677ZM255 17Q294 17 324 35T375 82T406 148T417 220Q417 245 413 271T396 319T361 355T304 369Q272 369 243 355T190 314T153 248T139 157Q139 130 144 105T163 61T199 29T255 17Z"  />
<glyph unicode="7" horiz-adv-x="529" d="M205 2Q204 -4 198 -4L136 -10Q132 -10 132 -5Q151 29 180 80T244 189T317 309T389 428T453 533T502 612Q401 612 342 612T252 610T211 606T198 601Q190 590 180 573T160 532Q158 528 152 528Q146 528 146 532Q148 541 151 554T158 580T164 607T169 631L173 656Q174 662 183 662Q209 660 238 659T297 657T352 656T397 656Q411 656 430 656T471 657T514 659T553 662Q555 662 555 655L551 631Q520 582 487 528T421 418T357 308T299 205T251 115T218 44Q214 36 211 24T205 2Z"  />
<glyph unicode="8" horiz-adv-x="529" d="M58 130Q58 176 76 210T124 272T193 320T274 360Q253 379 235 396T203 431T182 471T174 520Q174 558 191 586T235 634T296 662T367 672Q393 672 420 666T469 646T505 609T519 553Q519 516 505 487T466 435T411 394T345 361Q408 311 442 267T476 172Q476 124 458 89T407 31T333 -3T243 -15Q208 -15 175 -7T115 18T74 63T58 130ZM111 141Q111 108 122 85T153 45T198 22T253 14Q286 14 315 22T367 47T403 93T417 161Q417 190 405 216T373 266T333 307T295 340Q251 320 217 301T160 258T124 206T111 141ZM225 528Q225 505 234 484T258 444T290 409T323 379Q350 391 376 406T422 441T455 483T467 535Q467 590 438 617T355 645Q331 645 308 639T266 618T237 582T225 528Z"  />
<glyph unicode="9" horiz-adv-x="529" d="M90 -15Q85 -15 81 -9T76 5Q76 9 83 13Q199 55 289 137T428 338H424Q402 307 364 284T272 261Q233 261 205 274T158 310T130 362T120 423Q120 476 137 522T184 602T255 657T345 677Q390 677 421 662T471 620T498 560T507 490Q507 403 472 322T380 173T247 56T90 -15ZM336 646Q298 646 268 628T218 579T186 513T175 440Q175 415 180 389T197 342T231 307T287 293Q318 293 348 307T401 348T438 414T452 506Q452 532 447 557T428 602T393 634T336 646Z"  />
<glyph unicode=":" horiz-adv-x="261" d="M102 -19Q82 -19 72 -7T61 22Q61 48 75 63T106 78Q125 78 135 67T146 38Q146 11 132 -4T102 -19ZM178 339Q158 339 148 351T137 379Q137 405 151 420T182 436Q202 436 212 425T222 396Q222 369 208 354T178 339Z"  />
<glyph unicode=";" horiz-adv-x="261" d="M178 339Q158 339 148 351T137 379Q137 405 151 420T182 436Q202 436 212 425T222 396Q222 369 208 354T178 339ZM81 57Q89 74 97 81T117 88Q126 88 135 83T144 63Q144 49 136 36T108 -2L9 -131Q-6 -131 -6 -126L81 57Z"  />
<glyph unicode="&lt;" horiz-adv-x="529" d="M25 215V250L504 443V409L68 232L504 57V23L25 215Z"  />
<glyph unicode="=" horiz-adv-x="529" d="M25 303V332H504V303H25ZM25 132V163H504V132H25Z"  />
<glyph unicode="&gt;" horiz-adv-x="529" d="M24 23V57L461 232L24 409V443L503 250V215L24 23Z"  />
<glyph unicode="?" horiz-adv-x="464" d="M171 177Q183 232 217 271T308 347Q332 363 354 380T393 418T420 463T430 520Q430 555 419 579T389 619T343 642T288 649Q271 649 253 646T219 636Q209 628 196 605T173 560L159 528Q156 523 150 523Q143 523 143 528Q148 552 153 581T160 627L163 651Q164 656 172 658Q208 668 238 672T307 677Q344 677 377 668T435 641T475 594T490 528Q490 487 478 457T443 402T390 358T326 319Q279 293 247 257T201 178Q199 175 196 174T183 173Q175 173 173 174T171 177ZM157 -19Q137 -19 127 -7T116 22Q116 48 130 63T161 78Q180 78 190 67T201 38Q201 11 187 -4T157 -19Z"  />
<glyph unicode="@" horiz-adv-x="980" d="M643 439Q643 443 638 445Q624 450 592 450Q546 450 502 425T422 359T366 265T344 153Q344 138 346 123T353 94T366 72T389 63Q407 63 431 76T479 111T526 159T563 209Q572 225 582 249T601 300T620 356T635 408L643 439ZM791 -117Q770 -134 739 -149T671 -175T591 -193T505 -200Q393 -200 312 -167T177 -79T99 49T73 202Q73 319 112 410T217 565T369 661T552 694Q654 694 723 662T835 580T896 474T915 366Q915 291 896 228T842 118T755 45T638 18Q608 18 592 25T567 43T557 64T555 82Q555 105 559 126T570 177H565Q549 151 524 123T469 72T411 33T359 18Q339 18 326 27T304 51T292 84T288 120Q288 192 318 257T396 373T503 453T621 483Q629 483 640 483T663 481T686 478T704 474Q709 473 709 467Q695 435 676 386T641 283T613 178T601 93Q601 68 611 57T649 46Q702 46 743 68T813 132T857 230T872 357Q872 386 867 420T848 488T811 553T751 609T666 648T550 663Q463 663 386 634T251 547T159 405T125 209Q125 123 148 54T220 -64T340 -140T511 -167Q592 -167 661 -148T778 -93Q782 -90 786 -90Q789 -90 791 -98T794 -111Q794 -114 791 -117Z"  />
<glyph unicode="A" horiz-adv-x="631" d="M423 565H419L229 267H449L423 565ZM470 663Q483 501 496 350T521 67Q523 49 526 43T540 31L599 10Q601 9 601 7T601 4Q601 2 600 -1T597 -5Q571 -1 550 0T494 2Q421 2 364 -4Q361 -4 361 3Q361 9 364 11L379 15Q406 22 422 26T448 35T460 42T464 50Q464 64 463 88T460 140T456 191T453 230Q421 232 388 232T322 232Q290 232 263 232T205 230Q152 151 125 105T97 46Q97 43 100 41T113 34T140 25T186 11Q188 10 188 3Q188 -4 184 -4Q161 -1 128 0T59 2Q36 2 10 1T-42 -4Q-44 -4 -44 3Q-44 10 -41 11L-26 16Q-8 22 3 26T22 35T35 44T46 57Q86 112 138 189T245 349T353 514T450 663Q453 667 455 667H466Q470 667 470 663Z"  />
<glyph unicode="B" horiz-adv-x="586" d="M466 199Q466 239 452 264T414 303T361 322T302 328Q276 328 258 328T219 325Q210 291 201 252T182 173T166 97T154 33Q161 31 173 30T198 28T225 27T246 26Q281 26 320 33T391 60T445 113T466 199ZM225 356Q279 356 328 364T415 391T475 442T498 522Q498 556 487 577T456 611T410 629T353 634Q338 634 323 633T295 628Q276 560 259 493T225 356ZM117 2Q82 2 55 1T5 -4Q2 -4 2 3Q2 9 7 10L30 17Q51 23 63 27T81 35T90 43T95 55Q102 81 115 129T142 236T172 357T199 473T219 564T227 611Q227 617 217 623T166 641L138 649Q135 650 135 654Q135 660 139 662Q193 656 259 656Q283 656 312 659T374 662Q408 662 441 657T499 637T541 597T557 533Q557 489 540 457T496 403T434 368T364 348V344Q400 341 430 333T482 308T516 265T529 202Q529 154 510 116T454 52T368 11T256 -4Q240 -4 221 -3T183 -1T147 1T117 2Z"  />
<glyph unicode="C" horiz-adv-x="599" d="M392 15Q419 15 437 22T462 37Q466 43 475 58T493 91T513 127T529 160Q530 162 536 162Q545 162 545 158Q542 142 538 122T528 82T518 41T509 4Q508 -1 503 -3Q475 -11 448 -15T386 -19Q308 -19 253 3T163 61T112 145T95 242Q95 349 134 430T236 566T372 648T518 676Q584 676 625 666Q629 664 629 660Q625 647 621 627T611 584T602 542T595 507Q595 503 586 503Q579 503 579 505Q578 520 577 537T575 571T573 601T570 622Q565 633 545 637T500 641Q442 641 382 617T272 544T190 423T158 257Q158 142 220 79T392 15Z"  />
<glyph unicode="D" horiz-adv-x="675" d="M589 418Q589 477 571 518T523 584T451 620T361 631Q324 631 288 625Q271 557 253 484T218 335T184 184T152 35Q158 34 168 33T190 30T213 29T231 28Q306 28 371 54T485 131T561 254T589 418ZM139 662Q190 656 259 656Q297 656 324 659T375 662Q511 662 580 600T650 424Q650 316 614 236T518 102T384 22T231 -4Q207 -4 176 -1T116 2Q81 2 55 1T5 -4Q2 -4 2 3Q2 9 7 10L30 17Q51 23 63 27T81 35T90 43T95 55Q102 81 115 129T142 236T172 357T199 473T219 564T227 611Q227 617 217 623T166 641L138 649Q135 650 135 654Q135 660 139 662Z"  />
<glyph unicode="E" horiz-adv-x="563" d="M5 -4Q2 -4 2 3Q2 9 7 10L30 17Q51 23 63 27T81 35T90 43T95 55Q102 81 115 129T142 236T172 357T199 473T219 564T227 611Q227 617 217 623T166 641L138 649Q135 650 135 654Q135 660 139 662Q170 660 208 658T281 656Q300 656 335 656T411 657T490 659T556 662Q563 662 563 656L558 632Q556 622 553 607T546 575T540 543T536 517Q535 514 530 514Q524 514 523 517Q521 552 519 577T511 613Q509 617 503 619T484 623T446 626T381 627Q362 627 339 626T289 623Q279 596 263 529T224 364H303Q347 364 372 365T410 368T430 375T442 388Q450 399 459 417T476 454Q478 458 484 458Q490 458 490 454Q473 389 463 338T443 235Q442 231 435 231Q429 231 429 235Q428 258 427 278T424 310Q422 318 419 322T404 329T368 333T300 334H218Q209 297 198 253T177 166T160 88T151 36Q177 33 211 32T279 31Q348 31 381 35T422 45Q435 56 452 86T488 158Q490 162 497 162Q503 162 503 158Q500 147 495 129T483 90T473 52T466 26L461 2Q459 -4 450 -4Q424 -2 377 -1T281 1T188 2T126 2Q91 2 62 1T5 -4Z"  />
<glyph unicode="F" horiz-adv-x="522" d="M227 611Q227 617 216 623T168 639L138 647Q135 648 135 652Q135 660 139 662Q172 659 207 658T264 656Q283 656 321 656T402 657T486 659T555 662Q563 662 563 656L557 631Q554 621 551 606T544 574T537 542T533 516Q532 513 527 513Q520 513 520 516Q518 555 515 578T507 613Q504 617 498 619T477 623T436 625T364 626Q354 626 332 625T287 622Q276 584 262 524T225 368H286Q330 368 356 369T397 373T418 381T431 394Q438 405 446 420T465 458Q467 462 472 462Q477 462 477 458Q461 392 451 337T431 222Q430 219 424 219Q418 219 418 222Q416 254 415 279T412 313Q410 321 407 326T391 333T355 337T287 338H220Q209 295 197 247T176 155T160 82T153 46Q153 39 166 34T215 17L241 9Q244 7 244 3Q244 -4 240 -4Q189 2 118 2Q83 2 57 1T5 -4Q2 -4 2 3Q2 10 6 11L17 14Q41 21 55 25T77 34T88 42T93 51Q101 76 114 124T142 232T172 355T199 471T219 563T227 611Z"  />
<glyph unicode="G" horiz-adv-x="678" d="M158 257Q158 186 178 140T229 66T298 27T373 15Q444 15 485 35Q490 49 497 81T511 147T523 210T528 249Q528 253 527 256T519 264T500 273T462 284L435 291Q432 293 432 299Q432 305 436 305Q469 301 504 300T566 298Q595 298 616 299T661 305Q664 305 664 298Q664 293 661 291L623 278Q598 270 592 265T583 251Q580 235 574 206T562 142T549 74T539 16Q538 11 536 10T529 6Q513 0 493 -4T452 -12T411 -17T374 -19Q295 -19 242 4T156 64T109 148T95 242Q95 349 134 430T235 566T372 648T521 676Q553 676 585 674T639 666Q643 664 643 660Q639 647 634 627T625 584T616 542T609 507Q609 503 600 503Q593 503 593 505Q593 520 592 537T590 570T588 600T585 621Q579 632 557 636T502 641Q443 641 382 617T272 544T190 423T158 257Z"  />
<glyph unicode="H" horiz-adv-x="666" d="M519 46Q519 39 529 34T580 17L608 9Q611 7 611 4Q611 -2 607 -4Q554 2 483 2Q448 2 422 1T372 -4Q369 -4 369 3Q369 9 374 10L398 17Q419 23 431 27T449 35T458 43T463 55Q480 119 496 187T530 331H219Q209 292 198 245T176 155T159 82T152 46Q152 43 154 40T162 34T181 27T213 17L240 9Q243 7 243 4Q243 -2 239 -4Q188 2 116 2Q81 2 55 1T5 -4Q2 -4 2 3Q2 9 7 10L30 17Q51 23 63 27T81 35T90 43T95 55Q102 81 115 129T142 236T172 357T199 473T219 564T227 611Q227 617 217 623T166 641L138 649Q135 650 135 654Q135 660 139 662Q190 656 263 656Q298 656 324 657T373 662Q376 662 376 655Q376 649 371 648L354 643Q331 637 318 633T297 624T288 615T283 603L225 363H538Q547 401 557 442T575 518T589 579T594 611Q594 617 583 623T532 641L505 649Q502 650 502 654Q502 660 506 662Q557 656 629 656Q664 656 690 657T740 662Q743 662 743 655Q743 649 738 648L720 643Q697 637 684 633T664 624T655 615T650 603Q641 572 628 521T600 411T571 292T545 180T526 92T519 46Z"  />
<glyph unicode="I" horiz-adv-x="297" d="M153 46Q153 43 155 40T163 34T181 27T213 17L240 9Q243 7 243 4Q243 -2 239 -4Q188 2 116 2Q81 2 55 1T5 -4Q2 -4 2 3Q2 9 7 10L30 17Q51 23 63 27T81 35T90 43T95 55Q102 81 115 129T142 236T172 357T199 473T219 564T227 611Q227 617 217 623T166 641L138 649Q135 650 135 654Q135 660 139 662Q190 656 263 656Q298 656 324 657T373 662Q376 662 376 655Q376 649 371 648L354 643Q331 637 318 633T298 624T289 615T285 603Q278 577 266 527T239 416T209 291T181 174T161 86T153 46Z"  />
<glyph unicode="J" horiz-adv-x="423" d="M357 611Q357 617 344 623T291 641L264 649Q261 650 261 654Q261 660 265 662Q316 656 388 656Q423 656 448 657T496 662Q499 662 499 655Q499 649 494 648L476 643Q455 637 443 633T424 624T415 614T410 602L344 311Q341 298 338 280T330 242T320 200T310 158Q287 67 236 25T106 -18Q86 -18 65 -15T14 -2Q9 0 9 5Q11 25 19 62T36 136Q38 140 46 140Q51 140 51 137Q55 94 58 66T65 29Q72 10 104 10Q136 10 161 20T208 56T245 125T276 232L357 611Z"  />
<glyph unicode="K" horiz-adv-x="637" d="M306 364Q318 346 336 318T375 259T418 194T460 132T496 79T521 42Q528 34 540 29T572 16L593 9Q596 8 596 3Q596 -4 592 -4Q570 -1 544 0T496 2Q468 2 434 1T372 -4Q369 -4 369 3Q369 8 373 9L400 16Q432 24 441 29T452 40Q448 49 435 72T402 125T361 190T317 255T276 312T246 350L247 357Q395 471 475 538T555 617Q555 625 546 631T505 645L489 649Q485 650 485 654Q485 662 489 662Q512 660 545 658T602 656Q628 656 654 657T701 662Q704 662 704 655Q704 650 700 648L683 642Q660 634 644 627T610 609Q602 604 582 587T533 548T473 499T410 447T351 399T306 364ZM152 46Q152 43 154 40T162 34T181 27T213 17L240 9Q243 7 243 4Q243 -2 239 -4Q188 2 116 2Q81 2 55 1T5 -4Q2 -4 2 3Q2 9 7 10L30 17Q51 23 63 27T81 35T90 43T95 55Q102 81 115 129T142 236T172 357T199 473T219 564T227 611Q227 617 217 623T166 641L138 649Q135 650 135 654Q135 660 139 662Q190 656 263 656Q298 656 324 657T373 662Q376 662 376 655Q376 649 371 648L354 643Q331 637 318 633T297 624T288 615T283 603Q276 577 264 527T237 416T207 291T180 174T160 86T152 46Z"  />
<glyph unicode="L" horiz-adv-x="533" d="M116 2Q81 2 55 1T5 -4Q2 -4 2 3Q2 9 7 10L30 17Q51 23 63 27T81 35T90 43T95 55Q102 81 115 129T142 236T172 357T199 473T219 564T227 611Q227 617 217 623T166 641L138 649Q135 650 135 654Q135 660 139 662Q190 656 263 656Q298 656 324 657T373 662Q376 662 376 655Q376 649 371 648L354 643Q331 637 318 633T297 624T288 615T283 603Q276 578 265 529T239 420T209 296T182 177T160 83T149 32Q186 32 223 32T293 34T348 36T380 39Q390 40 397 42T410 49T421 62T433 82L479 165Q482 168 489 168Q497 168 497 164Q482 117 472 80T450 2L442 -4Q412 -2 369 -1T280 1T191 2T116 2Z"  />
<glyph unicode="M" horiz-adv-x="848" d="M236 612Q236 615 234 618T226 624T209 631T177 641L150 649Q147 650 147 654Q147 660 151 662Q168 660 190 659T235 657T280 656T320 656Q326 656 327 650Q340 532 358 396T396 124Q435 188 475 255T554 390T632 524T704 650Q708 656 715 656Q729 656 748 656T788 657T830 659T868 662Q871 662 871 655Q871 649 868 647L847 640Q822 632 808 627T787 619T776 612T772 605Q768 587 761 543T746 443T729 324T713 205T700 106T693 47Q693 40 704 35T755 17L782 9Q785 7 785 4Q785 -2 781 -4Q730 2 658 2Q623 2 597 1T547 -4Q544 -4 544 3Q544 9 549 10L572 17Q593 23 605 27T623 35T632 43T637 55Q640 68 646 109T661 205T677 323T693 442T706 539T713 594H710Q669 526 625 452T537 302T449 150T365 6H361Q352 6 352 12Q345 76 337 150T319 301T299 455T277 603H273Q261 568 245 519T210 414T174 301T141 195T114 108T99 54Q99 46 116 39T169 19L193 11Q196 9 196 3Q196 -4 192 -4Q166 -1 138 0T74 2Q39 2 14 1T-40 -4Q-43 -4 -43 3Q-43 10 -39 11L-21 17Q2 25 15 30T36 39T47 46T52 55Q66 94 84 145T121 251T158 363T193 467T220 554T236 612Z"  />
<glyph unicode="N" horiz-adv-x="698" d="M630 606Q630 617 617 623T563 641L536 649Q533 650 533 654Q533 660 537 662Q588 656 661 656Q696 656 722 657T771 662Q774 662 774 655Q774 649 769 648L752 643Q729 636 715 632T693 623T682 615T677 603Q667 566 654 512T625 397T596 273T568 155T546 58T532 -5Q531 -9 527 -9H521Q516 -9 514 -4Q489 62 460 133T399 277Q365 353 331 428T263 576H259Q242 512 223 433T187 278T156 142T138 53Q138 45 158 36T215 18L240 11Q243 9 243 3Q243 -4 239 -4Q213 -1 180 0T112 2Q77 2 53 1T0 -4Q-3 -4 -3 3Q-3 10 0 11L16 16Q39 23 52 28T73 38T84 47T89 56Q100 93 114 143T142 248T170 359T195 464T215 552T228 611Q228 617 218 623T167 641L139 649Q136 650 136 654Q136 659 139 662Q173 658 209 657T280 656Q285 656 288 655T295 646Q301 629 316 590T356 496Q398 403 439 311T524 128H528Q544 192 560 265T591 406T616 526T630 606Z"  />
<glyph unicode="O" horiz-adv-x="697" d="M100 221Q100 269 111 321T145 424T199 520T273 600T363 655T470 676Q524 676 562 659T623 611T656 537T667 442Q667 361 643 279T571 131T456 23T300 -19Q245 -19 207 0T145 53T111 129T100 221ZM160 230Q160 191 168 153T196 83T245 33T318 14Q371 14 413 35T487 90T543 169T581 260T603 353T610 437Q610 479 602 516T576 582T528 628T455 645Q408 645 368 627T295 577T237 505T195 417T169 323T160 230Z"  />
<glyph unicode="P" horiz-adv-x="563" d="M212 312Q270 312 324 320T421 349T488 409T514 507Q514 548 499 572T461 610T412 628T363 633Q346 633 326 631T287 626L212 312ZM152 46Q152 43 154 40T162 34T180 27T212 17L240 9Q243 7 243 4Q243 -2 239 -4Q188 2 116 2Q81 2 55 1T5 -4Q2 -4 2 3Q2 9 7 10L30 17Q51 23 63 27T81 35T90 43T95 55Q102 81 115 129T142 236T172 357T199 473T219 564T227 611Q227 617 217 623T166 641L138 649Q135 650 135 654Q135 660 139 662Q172 658 200 657T263 656Q300 656 331 659T392 662Q423 662 455 656T515 633T559 586T576 508Q576 450 551 407T477 336T360 294T205 280Q195 241 186 202T169 129T157 74T152 46Z"  />
<glyph unicode="Q" horiz-adv-x="704" d="M100 221Q100 269 111 321T145 424T199 520T273 600T363 655T470 676Q524 676 562 659T623 611T656 537T667 442Q667 372 648 300T591 166T501 58T379 -7Q432 -65 491 -91T609 -118Q621 -118 635 -116T661 -112Q663 -114 663 -117T663 -122Q663 -132 661 -134Q647 -139 625 -143T578 -147Q537 -147 503 -141T437 -119T373 -80T305 -19H300Q245 -19 207 0T145 53T111 129T100 221ZM160 230Q160 191 168 153T196 83T245 33T318 14Q371 14 413 35T487 90T543 169T581 260T603 353T610 437Q610 479 602 516T576 582T528 628T455 645Q408 645 368 627T295 577T237 505T195 417T169 323T160 230Z"  />
<glyph unicode="R" horiz-adv-x="597" d="M219 346Q283 347 334 357T422 390T477 448T497 531Q497 562 485 582T454 614T409 629T356 634Q339 634 320 632T285 626L219 346ZM139 662Q172 658 199 657T261 656Q285 656 316 659T377 662Q411 662 443 657T500 637T541 599T557 536Q557 492 541 459T498 401T436 360T362 334Q385 270 411 203T463 75Q474 48 481 39T505 26L565 11Q568 9 568 3Q568 -4 565 -4Q496 2 429 2L425 5Q398 85 369 166T308 324Q286 321 260 320T212 318Q209 307 204 283T192 230T178 170T165 113T156 68T152 46Q152 43 154 40T162 34T180 27T212 17L240 9Q243 7 243 4Q243 -2 239 -4Q188 2 116 2Q81 2 55 1T5 -4Q2 -4 2 3Q2 9 7 10L30 17Q51 23 63 27T81 35T90 43T95 55Q102 81 115 129T142 236T172 357T199 473T219 564T227 611Q227 617 217 623T166 641L138 649Q135 650 135 654Q135 660 139 662Z"  />
<glyph unicode="S" horiz-adv-x="507" d="M220 20Q253 20 282 27T334 49T369 87T382 144Q382 194 352 235T278 313Q255 332 234 352T195 395T167 444T156 502Q156 547 177 579T232 632T305 662T383 672Q449 672 514 657Q517 655 517 650Q515 639 513 621T509 583T505 543T501 508Q501 504 492 504Q486 504 485 506Q479 555 475 578T465 615Q460 626 435 633T373 641Q339 641 310 633T259 610T225 570T213 514Q213 490 221 469T243 428T277 389T318 348Q342 326 364 304T403 259T430 210T441 157Q441 111 420 79T366 26T291 -4T207 -14Q165 -14 125 -8T53 9Q49 11 49 16L76 181Q77 185 85 185Q92 185 92 182Q94 147 95 124T99 85T103 62T109 48Q117 38 149 29T220 20Z"  />
<glyph unicode="T" horiz-adv-x="571" d="M224 51Q263 200 298 349T362 630Q282 630 235 627T180 615Q171 607 157 584T122 522Q119 518 113 518Q107 518 107 522Q113 543 122 580T141 656Q142 662 151 662Q177 660 212 659T282 657T350 656T401 656Q420 656 449 656T510 657T575 659T635 662Q643 662 643 656Q633 617 625 580T613 522Q613 518 606 518Q599 518 599 522Q596 563 594 583T584 615Q579 623 539 626T418 630Q408 592 394 536T365 415T335 287T307 171T288 84T281 46Q281 39 291 33T341 17L368 9Q371 7 371 4Q371 -2 367 -4Q316 2 244 2Q209 2 184 1T135 -4Q132 -4 132 3Q132 9 135 10L159 17Q180 23 192 27T211 34T220 41T224 51Z"  />
<glyph unicode="U" horiz-adv-x="716" d="M655 608Q655 618 642 624T589 641L562 649Q559 650 559 654Q559 660 563 662Q614 656 686 656Q721 656 747 657T797 662Q800 662 800 655Q800 649 795 648L777 643Q754 637 741 633T720 625T710 617T705 605Q692 553 678 492T650 373T625 264T606 184Q596 139 574 102T518 37T440 -4T342 -19Q296 -19 256 -12T185 14T138 63T120 139Q120 189 134 243T159 345Q165 369 175 410T194 494T210 569T217 611Q217 617 206 623T155 641L127 649Q124 650 124 654Q124 660 128 662Q180 656 252 656Q287 656 313 657T363 662Q366 662 366 655Q366 649 361 648L343 643Q320 637 307 633T286 624T276 615T272 603L217 369Q199 294 188 243T177 151Q177 111 190 85T226 44T278 22T341 16Q380 16 415 24T480 53T532 106T567 191Q583 255 597 317T623 435T643 535T655 608Z"  />
<glyph unicode="V" horiz-adv-x="643" d="M241 601Q241 589 243 557T248 481T254 385T262 279T269 174T275 83H279Q368 212 432 308T537 470T597 570T617 612Q617 615 616 617T608 623T591 630T559 640L531 648Q528 649 528 654Q528 660 531 662Q557 659 589 658T656 656Q684 656 707 657T754 662Q757 662 757 655Q757 649 753 648L736 643Q720 638 710 634T693 625T680 615T668 601Q628 541 576 464T467 303T353 137T248 -16Q246 -19 241 -19H232Q228 -19 228 -15Q218 146 207 296T181 589Q179 602 177 609T169 622T153 631T124 641L99 649Q96 650 96 654Q96 660 100 662Q151 656 223 656Q258 656 284 657T334 662Q337 662 337 655Q337 649 332 648L310 642Q285 635 271 631T251 622T243 613T241 601Z"  />
<glyph unicode="W" horiz-adv-x="915" d="M886 612Q886 618 876 624T825 641L798 649Q796 650 796 654Q796 660 799 662Q850 656 922 656Q956 656 977 657T1021 662Q1024 662 1024 655Q1024 649 1019 648L1003 643Q971 633 959 625T936 601Q915 566 887 517T825 410T757 293T689 175T628 67T581 -20Q579 -23 575 -23H566Q561 -23 561 -20Q560 39 557 110T550 253T542 394T534 520H530Q498 464 461 398T384 260T306 118T231 -20Q229 -23 224 -23H215Q211 -23 211 -20Q209 52 205 137T196 307T186 465T177 589Q175 602 173 610T165 623T149 632T121 641L95 649Q92 650 92 654Q92 660 96 662Q147 656 217 656Q252 656 278 657T327 662Q330 662 330 655Q330 649 325 648L303 642Q278 635 264 631T244 622T236 613T234 601Q234 592 235 560T238 483T243 385T249 279T254 182T260 107H264Q316 200 362 284T445 438T511 562T555 652Q556 656 559 656H575Q578 656 578 649Q578 640 580 603T584 514T591 401T598 283T605 179T610 107H613Q695 246 747 338T831 488T874 574T886 612Z"  />
<glyph unicode="X" horiz-adv-x="687" d="M635 609Q592 570 538 505T412 358Q429 316 446 274T481 192T513 117T540 55Q545 44 551 38T568 28L628 9Q630 8 630 4Q630 2 629 -1T626 -4Q609 -2 597 -1T572 1T547 2T516 2Q481 2 452 1T387 -4Q384 -4 384 3Q384 8 387 10L405 15Q429 21 443 25T464 33T474 40T477 48Q477 55 470 77T448 135T415 218T372 319H368Q324 269 284 222T213 138T164 76T146 45Q146 39 157 33T208 16L228 10Q230 9 230 3Q230 -4 226 -4Q193 0 169 1T110 2Q87 2 58 1T-1 -4Q-3 -4 -3 3Q-3 9 0 10L15 15Q48 26 62 34T84 50Q104 68 133 100T198 172T274 259T357 354Q333 415 305 480T252 603Q246 618 222 628L167 647Q165 648 165 650T165 653Q165 655 166 658T169 662Q202 659 225 658T269 656Q289 656 305 656T336 657T366 659T400 662Q403 662 403 655Q403 649 400 647L382 643Q358 637 344 633T324 624T315 617T313 610Q313 603 319 583T337 534T363 467T395 390H399Q436 431 468 470T525 540T564 592T578 615Q578 621 567 627T516 643L500 647Q498 648 498 655Q498 662 502 662Q540 657 567 657T619 656Q642 656 666 657T721 662Q723 662 723 655Q723 648 720 647L707 643Q672 632 658 624T635 609Z"  />
<glyph unicode="Y" horiz-adv-x="583" d="M278 252Q269 290 258 336T234 429T209 520T186 600Q183 611 179 617T164 628L105 647Q103 648 103 650T103 653Q103 655 104 658T107 662Q133 659 156 658T209 656Q233 656 266 657T329 662Q332 662 332 655Q332 649 329 647L312 643Q288 637 274 634T253 627T244 619T242 610Q242 605 245 591T252 556T262 514T272 471L318 289H322Q362 339 403 394T479 496T534 577T556 616Q556 623 543 627T490 642L469 647Q467 648 467 655Q467 662 471 662Q504 658 530 657T577 656Q600 656 629 657T688 662Q690 662 690 655Q690 648 687 647L671 642Q653 636 642 632T623 624T612 616T603 607Q579 575 545 529T472 433T395 335T327 249Q323 234 316 203T301 138T288 78T282 46Q282 39 294 34T342 17L369 9Q372 7 372 3Q372 -4 368 -4Q335 0 309 1T247 2Q230 2 217 2T191 1T166 -1T137 -4Q134 -4 134 3Q134 9 138 10L152 14Q177 21 191 25T212 34T221 42T225 51Q241 106 254 156T278 252Z"  />
<glyph unicode="Z" horiz-adv-x="571" d="M582 640Q560 612 525 568T448 469T360 355T270 237T187 125T119 32Q207 32 267 33T364 36T420 41T441 47Q449 58 459 77T484 131L492 149Q494 153 501 153Q506 153 506 149Q504 140 501 123T495 88T488 52T483 24L480 2Q478 -4 470 -4Q444 -2 398 -1T303 1T212 2T150 2Q122 2 94 1T36 -4Q33 -4 33 0Q33 3 33 8T36 17Q105 103 173 190T302 358T415 508T502 627Q407 627 354 626T272 623T236 619T224 614Q216 606 207 589T181 537L171 515Q169 511 161 511Q157 511 157 515Q159 525 162 541T169 575T176 610T181 638L184 656Q184 662 194 662Q220 660 263 659T352 657T436 656T495 656Q513 656 536 657T581 661Q585 661 585 655L582 640Z"  />
<glyph unicode="[" horiz-adv-x="352" d="M282 693Q274 664 260 614T230 500T195 364T158 221T124 84T95 -35T74 -120T66 -158L189 -170Q194 -170 194 -174L192 -182Q191 -186 187 -186H9Q4 -186 4 -182Q25 -104 47 -18T92 154T136 325T177 483T211 617T235 717Q236 721 242 721H413Q416 721 416 717L414 710Q413 706 408 705L282 693Z"  />
<glyph unicode="\" horiz-adv-x="386" d="M309 -16H265L75 674H120L309 -16Z"  />
<glyph unicode="]" horiz-adv-x="352" d="M121 -158Q129 -130 143 -79T173 35T208 171T245 314T279 451T308 570T329 655T337 693L214 705Q209 706 209 710L211 717Q212 721 216 721H394Q399 721 399 717Q378 639 356 554T311 381T267 210T226 52T192 -82T168 -182Q167 -186 161 -186H-10Q-13 -186 -13 -182L-11 -174Q-10 -170 -5 -170L121 -158Z"  />
<glyph unicode="^" horiz-adv-x="529" d="M406 253L264 613L123 253H83L246 656H283L445 253H406Z"  />
<glyph unicode="_" horiz-adv-x="490" d="M0 -121V-72H490V-121H0Z"  />
<glyph unicode="`" horiz-adv-x="490" d="M353 657Q337 672 330 681T322 702Q322 713 329 719T348 726Q361 726 369 717T385 693L474 556Q474 550 460 550L353 657Z"  />
<glyph unicode="a" horiz-adv-x="514" d="M366 56Q366 48 373 48Q384 48 410 62T462 90Q468 88 468 76Q468 70 465 67Q432 46 410 32T372 8T346 -4T329 -8Q320 -8 315 -3T310 16Q310 25 312 40T319 74T329 114T341 155L338 157Q320 128 295 99T242 46T185 7T132 -8Q110 -8 94 1T68 26T54 61T49 99Q49 184 82 257T168 385T284 470T406 501Q422 501 444 499T481 492Q487 490 487 484Q478 461 466 424T440 344T413 256T390 171T373 100T366 56ZM421 450Q421 454 416 456Q409 458 401 458T377 459Q321 459 272 433T185 361T126 258T104 135Q104 97 117 69T160 40Q181 40 206 54T255 91T301 139T338 190Q347 205 358 234T379 298T399 364T414 420L421 450Z"  />
<glyph unicode="b" horiz-adv-x="482" d="M33 14Q57 93 85 187T142 376T194 558T236 712Q236 716 234 717T223 719Q215 719 195 719T151 716Q148 717 148 724Q148 730 151 732Q179 738 205 743T250 753T282 759T296 761Q303 761 303 752Q291 713 276 663T243 559T208 448T174 338L178 337Q196 365 219 394T268 446T323 485T381 500Q402 500 417 490T441 463T455 426T460 386Q460 312 434 242T365 116T267 27T152 -7Q127 -7 102 -5T59 0Q45 2 39 4T33 14ZM96 47Q96 40 102 39Q110 36 127 34T160 32Q214 32 259 58T338 127T389 226T408 344Q408 359 406 377T398 411T381 437T351 448Q325 448 300 433T252 396T210 346T175 295Q166 280 157 255T138 200T120 141T106 86L96 47Z"  />
<glyph unicode="c" horiz-adv-x="419" d="M346 458Q297 458 253 429T176 354T122 253T102 145Q102 131 104 113T114 77T139 47T183 35Q202 35 224 41T268 59T311 87T351 124Q356 124 358 117T361 101Q346 83 322 64T271 28T213 0T153 -11Q125 -11 105 -2T72 24T53 64T47 113Q47 183 76 252T154 377T263 466T386 500Q409 500 416 495T423 481Q423 477 421 465T416 435T409 399T401 360Q400 356 392 356Q385 356 383 359Q379 393 376 413T370 443T361 455T346 458Z"  />
<glyph unicode="d" horiz-adv-x="514" d="M364 54Q364 46 371 46Q382 46 408 60T461 88Q467 86 467 75Q467 70 465 66Q432 45 410 31T372 8T346 -4T328 -8Q319 -8 314 -4T309 13Q309 22 311 37T318 72T328 113T340 155L337 157Q319 128 294 99T241 46T184 7T131 -8Q109 -8 94 1T68 26T54 60T49 98Q49 183 82 256T168 384T283 470T404 501Q410 501 418 501T433 499Q443 533 453 569T470 635T483 686T488 710Q488 714 486 715T475 717Q467 717 447 717T403 714Q400 715 400 722Q400 730 403 732Q431 738 457 743T503 753T536 759T551 761Q558 761 558 752Q558 748 550 724T522 639Q492 541 464 444T413 266T378 129T364 54ZM421 450Q421 454 416 456Q409 458 400 458T375 459Q319 459 270 432T183 360T125 256T103 133Q103 95 116 68T159 40Q180 40 205 54T254 90T300 138T337 189Q346 204 357 233T378 297T398 364T414 420L421 450Z"  />
<glyph unicode="e" horiz-adv-x="428" d="M429 426Q429 388 404 359T336 307T236 269T116 244Q110 224 107 199T103 152Q103 131 107 110T121 73T149 46T196 36Q216 36 238 44T283 65T327 94T367 126Q377 126 377 107Q357 88 332 68T278 31T222 3T169 -8Q136 -8 114 2T77 31T56 72T49 121Q49 195 75 263T145 384T241 468T349 500Q389 500 409 479T429 426ZM321 466Q292 466 261 450T203 406T155 344T122 271L125 269Q178 274 223 288T302 321T354 365T373 416Q373 466 321 466Z"  />
<glyph unicode="f" horiz-adv-x="290" d="M84 452Q80 452 80 458L86 476Q87 482 92 482H179L193 533Q205 579 225 619T273 690T339 737T424 755Q465 755 465 742Q465 738 463 723T458 690T452 652T447 621Q446 617 439 617Q432 617 431 620L425 657Q419 699 414 711T396 723Q368 723 345 710T303 673T269 615T244 540L229 482H345Q350 482 350 476L344 459Q340 452 336 452H223Q209 396 195 335T167 219T142 119T124 51Q110 -1 94 -50T52 -137T-8 -199T-97 -223Q-122 -223 -128 -220T-135 -209Q-135 -206 -134 -195T-132 -166T-128 -129T-123 -88Q-120 -85 -114 -85Q-105 -85 -105 -89Q-97 -147 -89 -169T-68 -191Q-24 -191 4 -153T52 -44Q61 -13 76 48T108 181T142 325T172 452H84Z"  />
<glyph unicode="g" horiz-adv-x="476" d="M452 419Q439 377 423 320T391 203T359 86T335 -11Q324 -61 295 -100T226 -167T136 -210T34 -225Q-8 -225 -36 -214T-64 -171Q-64 -138 -35 -105T49 -30Q51 -30 57 -32T63 -40Q30 -75 13 -101T-5 -151Q-5 -174 15 -182T65 -191Q112 -191 146 -180T204 -151T243 -107T269 -54Q275 -35 284 -5T302 59T320 124T335 178L332 179Q315 152 290 127T238 83T182 51T130 39Q112 39 99 48T76 72T63 105T59 140Q59 211 88 276T165 392T271 471T389 501Q398 501 409 501T432 499T454 496T472 492Q478 490 478 484Q475 477 468 463T452 419ZM408 447Q408 453 401 455Q389 458 364 458Q315 458 269 437T188 378T131 288T109 174Q109 161 111 146T118 117T134 95T159 86Q184 86 211 99T264 133T309 176T340 220Q346 236 354 262T371 316T388 372T401 420L408 447Z"  />
<glyph unicode="h" horiz-adv-x="529" d="M235 712Q235 716 233 717T222 719Q214 719 194 719T150 716Q147 717 147 724Q147 730 150 732Q178 738 204 743T250 753T282 759T297 761Q304 761 304 752Q295 725 284 685T259 600T231 508T204 416T180 335T163 274L166 273Q196 313 238 353T323 426T408 479T478 500Q494 500 499 493T505 471Q505 463 500 445T485 396T458 318T421 209Q398 140 387 103T375 57Q375 49 383 49Q394 49 419 62T474 92Q477 91 480 88T483 78Q483 73 480 70Q442 46 418 31T377 7T352 -5T335 -8Q324 -8 321 -1T317 18Q317 26 319 39T328 74T346 132T375 220Q388 260 400 296T421 360T435 408T441 433Q441 440 439 443T428 446Q411 446 387 434T335 403T279 359T227 311T185 266T159 230Q146 201 134 166T109 82Q105 68 100 46T91 4L40 -3Q33 -3 33 4Q50 56 69 118T107 247T145 379T181 507T212 621T235 712Z"  />
<glyph unicode="i" horiz-adv-x="269" d="M255 623Q236 623 228 634T220 660Q220 682 233 695T264 709Q281 709 288 699T296 674Q296 650 284 637T255 623ZM233 485Q233 471 213 405T151 209Q108 74 108 56Q108 48 116 48Q126 48 152 61T208 93Q216 91 216 78Q216 73 213 70Q175 46 151 31T111 7T86 -5T70 -8Q59 -8 56 -2T52 16Q52 24 54 37T63 73T81 132T109 220Q122 262 133 298T153 363T166 410T171 434Q171 445 161 445Q156 445 147 442T126 433T102 422T79 411Q72 416 72 425Q72 428 72 429T74 432Q113 454 138 467T180 488T206 497T221 500Q233 500 233 485Z"  />
<glyph unicode="j" horiz-adv-x="268" d="M243 485Q243 474 231 428T201 320T160 189T119 60Q93 -16 70 -70T20 -158T-41 -207T-121 -223Q-143 -223 -149 -220T-156 -209Q-156 -204 -152 -171T-140 -92Q-139 -90 -136 -90T-130 -89Q-122 -89 -122 -93Q-116 -147 -109 -170T-88 -194Q-66 -194 -48 -182T-15 -149T12 -98T37 -35Q51 4 66 51T98 147T128 244T154 331T172 397T179 433Q179 444 170 444Q165 444 156 441T135 433T110 422T87 411Q80 416 80 425Q80 429 83 432Q122 454 147 467T189 488T215 497T230 500Q243 500 243 485ZM259 623Q241 623 232 634T223 660Q223 682 237 695T268 709Q285 709 293 699T302 674Q302 650 289 637T259 623Z"  />
<glyph unicode="k" horiz-adv-x="461" d="M401 454Q401 463 393 463Q373 463 339 460Q334 461 334 468Q334 471 334 474T337 480Q351 483 373 487T417 494T456 499T479 502Q490 502 490 492Q490 483 466 460T402 405T314 336T215 262V257Q223 240 239 211T275 149T312 88T343 43Q351 32 360 32Q383 32 430 66Q437 64 437 54Q437 47 435 45Q395 16 370 3T326 -10Q320 -10 317 -6Q305 8 285 40T242 109T198 185T163 251L166 261Q220 298 263 330T337 388T384 430T401 454ZM232 710Q232 714 230 715T220 717Q211 717 191 717T147 714Q144 715 144 722Q144 730 147 732Q176 738 202 743T248 753T282 759T297 761Q304 761 304 752Q280 679 256 599T208 441T164 289T127 157T102 58T91 4L36 -3Q31 -3 31 4Q36 19 47 56T74 143T107 253T142 373T176 492T204 596T224 672T232 710Z"  />
<glyph unicode="l" horiz-adv-x="261" d="M302 752Q284 696 262 625T218 480T175 334T138 204T112 106T102 59Q102 48 113 48Q121 48 147 61T205 91Q212 89 212 77Q212 72 209 69Q170 45 145 30T103 6T77 -5T62 -8Q49 -8 45 -1T41 19Q41 26 44 39T53 76T70 136T97 224Q113 277 129 332T160 440T187 539T209 622T224 682T230 712Q230 716 228 717T218 719Q209 719 189 719T145 716Q142 717 142 724Q142 730 145 732Q174 738 200 743T246 753T280 759T295 761Q302 761 302 752Z"  />
<glyph unicode="m" horiz-adv-x="792" d="M44 2Q53 29 66 69T94 156T123 248T148 334T167 400T174 434Q174 445 165 445Q160 445 151 442T129 433T104 421T81 409Q74 414 74 423Q74 427 77 430Q116 452 141 466T183 487T209 497T225 500Q236 500 236 484Q236 479 231 460T218 411T198 346T173 273L176 272Q206 312 245 352T325 426T404 479T471 500Q487 500 492 493T498 470Q498 456 481 408T431 274L434 272Q464 312 504 352T587 426T670 479T740 500Q755 500 760 493T766 470Q766 462 762 445T747 397T721 320T683 209Q660 140 649 100T637 51Q637 43 645 43Q656 43 681 57T736 90Q739 89 742 87T745 77Q745 72 742 69Q704 45 679 30T638 7T611 -5T595 -8Q576 -8 576 18Q576 26 578 39T587 74T605 132T635 220Q649 261 662 297T684 363T699 410T705 434Q705 447 691 447Q675 447 652 435T602 404T547 361T495 311T451 261T422 218Q416 204 411 190T401 159T391 125T378 82Q374 68 369 46T361 4L309 -3Q303 -3 301 2Q310 29 323 71T352 159T382 253T409 340T428 404T436 434Q436 441 434 444T423 447Q407 447 385 435T336 404T284 359T234 309T192 259T164 216Q158 202 153 188T143 159T132 125T120 82Q116 68 111 46T102 4L51 -3Q44 -3 44 2Z"  />
<glyph unicode="n" horiz-adv-x="540" d="M174 433Q174 444 165 444Q160 444 151 441T130 432T106 420T83 409Q76 414 76 425Q76 429 79 432Q118 454 143 467T185 488T210 497T225 500Q232 500 234 495T237 482Q237 477 233 458T220 411T200 348T176 276L179 275Q209 315 250 355T334 427T418 480T487 500Q504 500 509 493T515 470Q515 462 510 445T495 396T469 318T431 209Q408 140 397 102T386 54Q386 46 394 46Q405 46 430 60T485 92Q488 91 491 88T494 78Q494 73 491 70Q453 46 429 31T388 7T362 -5T345 -8Q325 -8 325 18Q325 26 328 39T338 74T357 132T386 220Q399 260 411 296T432 360T446 408T452 432Q452 439 450 442T439 446Q423 446 399 435T348 405T292 363T239 314T195 266T166 224Q154 195 144 162T120 81Q116 67 111 45T103 4L51 -3Q45 -3 43 2Q52 29 65 69T93 156T122 248T148 334T167 399T174 433Z"  />
<glyph unicode="o" horiz-adv-x="473" d="M48 124Q48 160 58 202T88 285T135 365T195 434T265 481T344 499Q373 499 393 485T425 450T442 402T448 352Q448 317 437 276T407 194T360 115T299 48T227 1T146 -17Q116 -17 97 -5T67 28T52 73T48 124ZM100 150Q100 124 104 102T116 62T139 36T173 26Q225 26 267 56T337 132T381 230T397 325Q397 348 393 371T379 413T353 444T312 456Q268 456 229 429T162 357T117 259T100 150Z"  />
<glyph unicode="p" horiz-adv-x="516" d="M116 41Q116 36 121 35Q127 33 143 32T174 31Q228 31 276 58T359 129T416 229T437 345Q437 360 435 378T427 413T410 440T380 451Q354 451 328 435T277 394T233 341T197 288Q188 273 178 248T158 194T140 135T125 80L116 41ZM169 436Q169 440 168 443T162 447Q157 447 147 444T124 435T98 423T75 410Q73 412 71 416T68 425Q68 429 71 432Q108 454 132 467T172 487T197 497T212 500Q223 500 226 496T229 480Q229 474 226 457T216 416T203 367T189 320L192 318Q210 346 235 378T289 437T349 482T410 500Q432 500 448 490T474 464T488 427T493 388Q493 314 463 243T387 116T283 26T171 -8Q133 -8 103 -5Q80 -86 71 -123T62 -171Q62 -176 64 -180T73 -187T94 -195T131 -205L150 -209Q153 -210 153 -217Q153 -221 150 -221Q119 -219 93 -219T35 -218Q19 -218 6 -218T-19 -218T-44 -219T-73 -221Q-75 -221 -75 -217Q-75 -210 -73 -209L-55 -204Q-23 -195 -12 -189T5 -169Q9 -156 20 -121T45 -39T74 58T101 155Q111 191 123 234T145 318T162 390T169 436Z"  />
<glyph unicode="q" horiz-adv-x="510" d="M339 161Q321 132 295 103T239 48T179 8T125 -8Q104 -8 90 2T66 27T53 62T48 100Q48 185 81 258T167 385T282 470T404 501Q421 501 443 499T480 492Q490 489 490 484Q479 457 464 412T433 313T401 203T370 97T346 11T332 -40Q327 -59 322 -80T312 -119T305 -152T302 -171Q302 -177 304 -181T313 -189T334 -196T372 -205L391 -209Q394 -210 394 -217Q394 -221 391 -221Q360 -219 333 -219T273 -218Q257 -218 245 -218T222 -218T198 -219T170 -221Q167 -221 167 -217Q167 -210 170 -209L187 -204Q218 -195 229 -190T246 -169Q251 -155 261 -121T285 -42T313 55T342 159L339 161ZM421 448Q421 452 416 454Q409 456 399 457T374 458Q318 458 269 432T184 362T126 258T105 134Q105 97 116 69T154 41Q175 41 201 55T252 91T300 139T338 190Q347 205 357 233T378 293T398 357T413 415L421 448Z"  />
<glyph unicode="r" horiz-adv-x="396" d="M120 81Q116 67 112 46T103 4L51 -3Q45 -3 43 2Q52 29 65 69T93 156T122 248T148 334T167 399T174 433Q174 444 165 444Q160 444 151 441T130 432T106 421T83 410Q76 415 76 425Q76 429 79 432Q118 454 143 467T184 488T209 497T225 500Q236 500 236 485Q236 480 232 463T220 419T201 360T176 290L182 289Q209 332 239 370T298 436T356 482T407 499Q422 499 422 482Q422 479 420 465T413 432T404 391T393 350Q383 350 380 351T377 355Q375 402 372 419T354 437Q339 437 314 416T263 364T211 297T169 230Q156 202 145 166T120 81Z"  />
<glyph unicode="s" horiz-adv-x="396" d="M349 369Q343 408 339 429T328 461T313 474T290 476Q269 476 247 472T206 458T175 431T163 389Q163 353 180 327T232 268Q269 233 294 199T320 128Q320 91 303 65T258 23T195 0T122 -8Q102 -8 83 -7T50 -2T28 5T19 16Q19 24 26 59T44 137Q47 140 55 140Q61 140 61 136Q63 90 64 69T69 41Q76 30 98 25T142 20Q161 20 182 23T222 37T253 66T265 114Q265 149 245 176T189 236Q156 266 133 299T110 372Q110 407 127 431T172 472T232 495T295 502Q310 502 324 501T351 499T371 495T382 488Q382 485 380 473T376 443T370 407T364 370Q363 368 362 368T356 367Q351 367 349 369Z"  />
<glyph unicode="t" horiz-adv-x="307" d="M97 475Q126 478 148 486T188 513T221 562T254 637Q260 638 266 638T279 641L284 636Q270 598 258 559T234 482H343Q346 482 347 480T348 476L341 459Q337 452 332 452H225Q201 376 182 311T148 194T127 108T119 57Q119 46 123 43T139 39Q149 39 165 43T200 55T235 70T266 86Q273 84 273 74Q273 68 270 65Q231 42 201 28T149 5T113 -5T91 -8Q71 -8 66 4T61 28Q61 45 70 84T94 180T131 305T177 452H93Q86 452 86 457L91 469Q92 475 97 475Z"  />
<glyph unicode="u" horiz-adv-x="541" d="M392 51Q392 43 400 43Q411 43 436 56T491 87Q498 85 498 76Q498 71 495 68Q458 44 434 29T395 6T370 -5T354 -8Q344 -8 340 -2T336 16Q336 24 338 37T346 72T360 123T382 195L379 197Q347 159 308 123T228 57T151 10T88 -8Q56 -8 56 25Q56 34 58 50T67 93T88 163T124 268Q150 339 161 380T175 434Q175 445 166 445Q161 445 153 442T133 433T109 421T87 409Q80 414 80 424Q80 428 83 431Q123 454 148 467T188 488T212 498T227 500Q235 500 237 495T239 481Q239 465 222 412T170 257Q142 176 130 128T118 62Q118 55 121 49T135 43Q159 43 195 64T267 116T335 179T380 237Q394 261 405 291T427 356Q436 388 444 420T462 490L511 496Q519 496 519 489Q510 462 497 421T470 332T442 237T417 150T399 83T392 51Z"  />
<glyph unicode="v" horiz-adv-x="471" d="M138 431Q138 442 130 442Q126 442 116 438T94 429T69 417T46 405Q39 410 39 420Q39 424 42 427Q77 449 101 463T140 485T162 497T172 500Q184 500 187 491T191 467Q191 455 190 427T188 360T184 280T180 197T177 123T174 69Q174 58 179 58Q249 140 296 199T370 301T409 372T421 418Q421 451 396 464V468Q399 470 406 475T423 485T442 495T456 500Q467 500 474 489T482 461Q482 430 464 392T415 309T343 215T256 111Q229 79 210 54T177 8Q175 6 169 3T156 -4T140 -10T128 -13Q121 -13 121 -3Q124 45 127 108T132 233T136 348T138 431Z"  />
<glyph unicode="w" horiz-adv-x="711" d="M191 467Q191 458 190 431T188 366T185 285T181 200T178 123T175 67Q175 58 176 57T181 55Q217 99 249 141T308 220T354 285T383 332Q383 378 383 408T380 468Q391 477 403 482T423 488Q433 488 433 455Q433 422 431 371T427 265T423 157T418 71Q418 62 418 59T424 55Q488 128 533 186T608 288T650 366T664 422Q664 439 656 448T635 463V467Q638 471 645 476T662 487T680 496T694 500Q708 500 715 487T722 457Q722 423 701 380T647 289T575 194T499 104Q473 74 454 52T420 8Q418 4 403 -4T376 -12Q369 -12 369 -2Q371 23 373 58T376 133T379 211T382 281Q374 268 361 248T330 205T294 158T259 113Q251 104 241 90T219 62T198 34T182 11Q181 9 175 5T162 -2T146 -9T132 -12Q124 -12 124 -2Q126 46 128 108T133 233T136 348T138 431Q138 442 130 442Q126 442 116 438T94 429T69 417T46 405Q38 411 38 420Q38 424 41 427Q77 449 100 463T139 485T161 497T172 500Q184 500 187 491T191 467Z"  />
<glyph unicode="x" horiz-adv-x="481" d="M443 442Q422 442 381 399T279 274Q288 242 299 209T320 144T340 89T356 52Q362 39 371 39Q379 39 396 46T433 65Q441 59 441 51Q441 46 438 44Q390 16 365 5T327 -6Q322 -6 317 4T304 33Q301 42 294 63T278 111T260 167T243 222H239Q195 163 161 118T99 43T45 -2T-5 -17Q-13 -17 -14 -14T-16 -6Q-16 3 -8 36T15 120Q29 120 29 114Q29 77 32 61T46 45Q57 45 76 62T120 107T173 174T232 256Q215 314 199 359T171 429Q165 443 156 443Q148 443 131 434T95 411Q92 413 89 417T86 423Q86 428 89 430Q144 470 167 486T196 502Q203 502 207 496T218 470Q224 452 238 407T269 303H272Q306 348 335 384T391 447T440 487T486 502Q499 502 499 491Q499 482 497 469T492 439T486 404T478 370Q468 370 467 371T465 376Q462 413 458 427T443 442Z"  />
<glyph unicode="y" horiz-adv-x="453" d="M138 431Q137 442 129 442Q125 442 115 438T93 429T69 417T46 405Q39 410 39 420Q39 425 42 427Q77 449 100 463T139 485T161 497T171 500Q184 500 187 491T192 467Q194 452 196 420T202 348T208 265T214 182T218 113T220 70Q220 57 227 57Q318 187 361 281T405 418Q405 450 379 464V468Q381 470 389 475T406 485T424 495T438 500Q449 500 457 489T465 461Q465 426 444 375T388 263T313 139T232 17Q163 -102 96 -162T-44 -223Q-53 -223 -53 -211Q-53 -204 -52 -190T-47 -157T-40 -119T-31 -79Q-27 -75 -23 -75Q-14 -75 -14 -80Q-10 -131 -4 -151T14 -172Q36 -172 63 -152T115 -102T156 -43T173 9Q173 32 171 66T167 141T160 224T153 306T145 378T138 431Z"  />
<glyph unicode="z" horiz-adv-x="423" d="M99 386Q93 386 87 389T81 397Q94 432 102 451T117 480T130 491T145 493Q155 493 186 490T254 482T327 474T384 470Q403 470 417 477T450 500Q458 500 459 495T462 483L457 478Q435 457 403 422T332 345T255 259T180 174T117 101T75 50Q147 18 206 1T294 -17Q310 -17 323 -8T357 27L368 40Q373 40 377 36T381 28Q371 14 358 -2T329 -33T299 -57T270 -67Q253 -67 226 -60T166 -42T98 -15T30 16L17 19V27Q48 63 92 115T186 223T283 333T370 427Q303 427 249 434T155 442Q133 442 121 427T99 386Z"  />
<glyph unicode="{" horiz-adv-x="352" d="M59 262Q59 265 60 268T64 273Q88 277 105 289T133 320T153 359T167 404L212 579Q224 625 240 653T279 696T328 716T389 721Q392 721 392 717Q391 711 389 709T384 706Q352 703 333 696T300 673T279 636T261 580L218 421Q209 390 201 365T182 320T153 287T109 267L108 263Q139 254 148 238T157 198Q157 175 146 137L95 -45Q90 -64 86 -84T82 -118Q82 -142 98 -155T159 -170Q162 -172 162 -174Q162 -179 160 -182T155 -186Q130 -186 108 -184T70 -175T43 -155T33 -121Q33 -109 38 -87T49 -44L102 148Q107 164 109 177T112 203Q112 224 100 239T59 262Z"  />
<glyph unicode="|" horiz-adv-x="214" d="M83 -210V761H130V-210H83Z"  />
<glyph unicode="}" horiz-adv-x="352" d="M346 273Q346 271 345 267T341 262Q317 258 300 246T271 215T252 175T238 131L193 -44Q181 -90 165 -118T126 -161T77 -181T16 -186Q13 -186 13 -182Q14 -175 16 -173T21 -170Q52 -167 72 -160T105 -138T126 -101T144 -45L187 114Q196 145 204 170T223 215T252 248T296 269L297 272Q266 281 257 297T248 337Q248 360 259 398L310 580Q315 599 318 619T322 653Q322 677 306 690T246 706Q243 707 243 710Q243 715 245 718T250 721Q275 721 297 719T335 710T361 691T371 657Q371 644 367 623T356 579L303 387Q298 372 296 358T293 332Q293 311 305 296T346 273Z"  />
<glyph unicode="~" horiz-adv-x="529" d="M516 295Q513 247 485 215T406 182Q371 182 334 193T261 219T190 245T125 257Q107 257 92 250T67 231T50 204T40 172H12Q16 196 24 217T45 253T77 277T125 286Q159 286 196 275T270 249T341 223T405 211Q423 211 437 218T463 237T481 264T492 295H516H516Z"  />
<glyph unicode="&#xA0;" horiz-adv-x="261" />
<glyph unicode="&#xA1;" horiz-adv-x="290" d="M212 498Q232 498 243 485T254 457Q254 430 239 414T207 398Q187 398 177 410T166 439Q166 467 180 482T212 498ZM161 307Q162 312 169 312H181Q188 312 188 307L76 -138Q69 -166 60 -181T31 -197Q21 -197 12 -191T2 -173Q2 -162 11 -131T37 -51L161 307Z"  />
<glyph unicode="&#xA2;" horiz-adv-x="529" d="M416 458Q407 458 403 457L277 34Q312 42 350 65T420 124Q425 124 427 117T430 101Q418 86 400 70T360 40T314 13T266 -5L234 -111Q233 -116 227 -116H208Q201 -116 201 -111L230 -11H222Q167 -11 142 24T117 113Q117 172 138 231T195 340T278 429T378 486L412 598Q413 602 419 602H440Q445 602 445 598L415 496Q425 498 435 499T456 500Q479 500 486 495T493 481Q493 477 491 465T486 435T478 399T470 360Q469 356 462 356Q455 356 453 359Q449 393 446 413T440 443T431 455T416 458ZM170 140Q170 122 172 103T183 69T205 43T243 32L367 450Q326 437 290 404T228 328T186 236T170 140Z"  />
<glyph unicode="&#xA3;" horiz-adv-x="529" d="M481 651Q435 651 398 638T331 593T281 505T248 364H415Q419 364 419 358L415 339Q414 332 408 332H243Q232 269 221 225T194 148T158 90T109 41V37Q134 41 155 43T202 47T263 49T353 49H412Q424 49 436 68T465 124L475 144Q477 148 484 148Q490 148 490 144Q487 134 482 118T472 84T461 44T450 2Q448 -4 440 -4Q374 0 299 1T156 2Q142 2 121 2T76 1T29 -1T-11 -5Q-14 -5 -14 2Q-14 7 -9 10L12 16Q44 25 62 33T85 47Q125 85 153 153T192 332H88Q83 332 83 337L89 358Q90 364 95 364H196Q199 382 202 405T209 448Q222 512 249 556T313 626T391 664T477 676Q517 676 546 669Q557 666 557 662Q555 650 553 632T548 597T543 565T540 546Q539 542 536 542H532Q529 542 527 545T523 562Q517 593 513 611T505 638T495 649T481 651Z"  />
<glyph unicode="&#xA4;" horiz-adv-x="529" d="M291 504Q340 504 371 489T432 448L480 500L504 478L453 427Q476 400 487 365T498 294Q498 244 484 211T444 148L495 100L473 77L422 127Q395 104 360 94T290 83Q254 83 219 93T157 127L106 77L84 100L135 148Q110 177 95 210T80 294Q80 329 91 364T126 427L75 478L99 500L147 448Q176 474 208 489T291 504ZM116 294Q116 257 128 224T164 167T219 128T289 114Q328 114 360 128T414 168T449 225T462 294Q462 330 450 363T414 420T360 459T289 474Q251 474 220 460T165 420T129 363T116 294Z"  />
<glyph unicode="&#xA5;" horiz-adv-x="529" d="M215 51Q223 86 231 123T248 198H70Q66 198 66 203L69 222Q70 228 75 228H254L274 320H96Q92 320 92 324L95 343Q96 350 102 350H269Q252 394 236 435T205 511T179 570T161 607Q156 615 151 620T137 629L79 648Q77 649 77 651T77 654Q77 656 78 659T81 662Q147 656 184 656Q202 656 215 656T241 657T267 659T299 662Q302 662 302 656Q302 650 299 648L279 643Q258 638 246 634T228 626T221 619T219 610Q220 606 225 590T239 551T258 501T279 447T300 398T317 360Q334 382 361 420T416 497T462 570T484 614Q484 620 470 626T416 643L396 648Q394 649 394 655Q394 662 398 662Q420 660 434 659T460 657T484 656T514 656Q536 656 557 657T609 662Q611 662 611 655Q611 648 607 647L595 643Q560 631 549 625T531 609Q473 534 429 472T339 350H497Q501 350 501 345L498 326Q497 320 491 320H321L302 228H470Q474 228 474 223L471 205Q470 198 465 198H295Q287 166 279 126T265 46Q265 43 267 40T275 34T292 26T324 17L352 9Q355 7 355 4Q355 -2 351 -4Q300 2 227 2Q192 2 171 1T125 -4Q122 -4 122 3Q122 9 125 10L149 17Q170 23 182 27T201 34T210 41T215 51Z"  />
<glyph unicode="&#xA6;" horiz-adv-x="214" d="M83 373V761H130V373H83ZM83 -210V179H130V-210H83Z"  />
<glyph unicode="&#xA7;" horiz-adv-x="529" d="M277 373Q230 356 202 327T174 252Q174 234 180 218T204 184T254 144T340 89Q358 97 375 107T405 131T427 163T436 206Q436 225 429 243T403 280T355 321T277 373ZM261 389Q205 437 205 493Q205 540 224 574T273 632T343 666T422 677Q452 677 480 673T538 663Q541 663 541 656Q531 628 523 595T508 528Q505 525 498 525Q492 525 491 527L490 536Q487 557 486 571T483 595T479 612T475 626Q470 636 457 642T415 648Q383 648 355 639T305 613T271 569T258 507Q258 472 277 445T342 388Q381 362 408 341T453 299T479 257T487 210Q487 186 476 166T447 129T406 99T357 77Q382 59 398 35T414 -23Q414 -65 397 -97T349 -152T273 -185T176 -196Q135 -196 109 -191T54 -178Q51 -177 51 -173Q54 -161 58 -141T67 -100T74 -57T80 -19Q80 -15 90 -15Q92 -15 95 -15T99 -18L100 -29Q101 -43 103 -60T109 -94T115 -124T121 -142Q126 -151 144 -157T193 -164Q217 -164 246 -159T300 -140T342 -103T359 -43Q359 -21 353 -4T332 29T293 62T233 102Q204 120 184 136T151 168T131 202T125 241Q125 271 139 295T173 338T217 368T261 389Z"  />
<glyph unicode="&#xA8;" horiz-adv-x="490" d="M249 622Q231 622 224 632T217 654Q217 674 229 687T258 701Q274 701 281 692T289 670Q289 647 276 635T249 622ZM411 622Q393 622 386 632T378 654Q378 674 391 687T419 701Q436 701 443 692T451 670Q451 647 438 635T411 622Z"  />
<glyph unicode="&#xA9;" horiz-adv-x="794" d="M100 329Q100 398 124 457T191 559T292 628T416 653Q483 653 540 628T641 560T708 457T733 329Q733 260 709 201T641 99T541 31T416 6Q350 6 292 30T192 98T125 201T100 329ZM129 329Q129 265 151 211T213 116T304 53T416 30Q476 30 528 53T620 116T681 210T704 329Q704 392 682 446T620 541T529 605T416 628Q356 628 304 605T213 542T152 447T129 329ZM518 470Q515 478 513 483T506 493Q501 498 484 501T445 504Q416 504 389 494T342 461T309 407T297 331Q297 294 308 263T339 209T385 173T444 160Q454 160 465 161T487 165T504 171T514 179Q519 190 525 206T542 251Q543 253 546 253Q551 253 551 251V160Q551 152 546 150Q522 144 496 140T443 136Q399 136 363 148T300 183T259 242T244 324Q244 378 262 417T310 481T378 517T456 529Q480 529 501 527T542 520Q546 519 546 514V423Q546 421 541 421Q537 421 536 424L518 470Z"  />
<glyph unicode="&#xAA;" horiz-adv-x="414" d="M421 653Q411 630 399 591T375 510T356 433T348 384Q348 379 353 379Q360 379 377 387T413 406Q417 406 417 397Q417 395 417 391T415 386Q366 355 343 343T311 331Q307 331 304 333T300 344Q300 356 305 382T318 433L316 436Q304 418 287 400T251 366T212 341T176 331Q162 331 152 338T136 356T127 380T124 406Q124 461 145 508T201 590T276 644T357 664Q368 664 386 663T417 660Q421 659 421 653ZM368 625Q368 627 365 629Q360 631 354 631T338 632Q301 632 270 617T217 574T182 511T169 434Q169 424 170 413T174 393T183 378T202 372Q216 372 233 381T266 404T297 436T320 468Q325 478 331 494T343 530T354 568T363 603L368 625Z"  />
<glyph unicode="&#xAB;" horiz-adv-x="464" d="M94 250Q94 255 97 261T114 282L246 438Q250 442 255 442H270Q272 442 272 439Q231 382 205 347T165 290T146 260T141 246Q141 240 143 230T152 199T168 147T194 67Q194 64 190 64H176Q171 64 170 68L102 224Q97 235 96 240T94 250ZM259 250Q259 255 262 261T278 282L411 438Q415 442 419 442H435Q437 442 437 439Q395 382 370 347T330 290T311 260T306 246Q306 240 308 230T317 199T333 147T359 67Q359 64 355 64H341Q335 64 334 68L267 224Q262 235 261 240T259 250Z"  />
<glyph unicode="&#xAC;" horiz-adv-x="529" d="M473 132V303H25V332H504V132H473Z"  />
<glyph unicode="&#xAD;" horiz-adv-x="351" d="M72 239Q67 239 67 245L73 266Q74 272 79 272H303Q308 272 308 267L303 246Q302 239 296 239H72Z"  />
<glyph unicode="&#xAE;" horiz-adv-x="490" d="M134 469Q134 428 148 395T185 338T240 302T306 289Q340 289 371 301T425 337T462 394T476 469Q476 511 463 544T426 601T371 638T306 651Q271 651 240 638T186 602T148 545T134 469ZM112 469Q112 515 127 551T169 614T231 654T306 668Q345 668 380 654T441 614T483 552T498 469Q498 424 483 387T442 325T380 285T306 271Q266 271 231 285T170 324T128 387T112 469ZM274 482H292Q318 482 339 492T360 531Q360 557 343 565T307 574Q300 574 290 573T274 570V482ZM424 365Q425 364 425 361Q425 359 424 358Q409 360 399 360T374 360Q357 389 340 416T304 467H274V431Q274 417 274 403T275 378Q275 373 296 369L308 366Q309 365 309 361Q309 358 308 358Q294 360 282 360T257 360Q245 360 235 360T210 358Q209 358 209 361Q209 365 210 366L223 369Q242 374 242 378Q243 386 243 398T243 431V481Q243 489 243 501T243 526T243 550T242 566Q240 569 232 572L210 580Q209 581 209 585Q209 588 210 588Q226 586 235 586T257 586Q274 586 288 587T314 588Q347 588 369 576T391 531Q391 506 375 492T335 472L395 385Q402 376 404 374T411 369L424 365Z"  />
<glyph unicode="&#xAF;" horiz-adv-x="490" d="M209 630Q204 630 204 636L209 656Q210 663 217 663H478Q483 663 483 657L478 637Q477 630 470 630H209Z"  />
<glyph unicode="&#xB0;" horiz-adv-x="441" d="M369 520Q369 564 343 591T274 619Q232 619 206 592T179 520Q179 480 205 452T274 423Q316 423 342 451T369 520ZM414 520Q414 490 403 465T373 422T329 394T274 383Q245 383 220 393T177 421T147 465T136 520Q136 550 146 575T176 619T220 648T274 659Q303 659 328 649T373 620T403 576T414 520Z"  />
<glyph unicode="&#xB1;" horiz-adv-x="529" d="M282 257V77H247V257H25V287H247V465H282V287H504V257H282ZM25 0V30H504V0H25Z"  />
<glyph unicode="&#xB2;" horiz-adv-x="353" d="M270 729Q233 729 198 700Q196 698 194 698Q191 698 188 701T184 708Q204 730 230 744T288 759Q325 759 349 740T373 679Q373 652 357 625T316 571T259 519T197 470L165 447V443L298 447Q308 447 314 456T331 482L337 493Q338 495 343 495Q347 495 347 493Q345 486 342 476T337 457T332 438T328 423L326 410Q326 407 321 407Q294 409 270 409T219 410Q190 410 165 410T111 407Q109 407 109 411L113 429Q162 466 201 497T268 557T311 613T326 669Q326 697 312 713T270 729Z"  />
<glyph unicode="&#xB3;" horiz-adv-x="353" d="M122 420Q147 420 176 425T230 444T271 476T288 525Q288 558 267 572T208 588Q205 588 205 596Q205 602 208 604Q246 609 272 627T299 684Q299 705 286 718T249 732Q235 732 221 728T193 715Q189 713 188 713Q185 713 183 718T181 725Q198 740 219 749T266 759Q305 759 325 740T345 694Q345 675 337 660T317 633T289 615T258 603V599Q290 597 313 581T336 530Q336 491 315 466T261 427T191 407T124 401Q122 401 121 405T119 415Q119 420 122 420Z"  />
<glyph unicode="&#xB4;" horiz-adv-x="490" d="M293 550Q278 550 278 556L388 692Q402 709 411 717T431 726Q439 726 447 720T455 706Q455 695 445 684T418 659L293 550Z"  />
<glyph unicode="&#xB5;" horiz-adv-x="639" d="M444 51Q444 43 452 43Q462 43 488 56T543 87Q550 85 550 76Q550 71 547 68Q510 44 486 29T447 6T422 -5T406 -8Q396 -8 392 -2T388 16Q388 24 390 37T398 72T412 123T434 195L431 197Q399 159 362 124T287 62T216 19T155 2Q139 2 134 15T128 49Q122 28 115 0T100 -58T86 -115T78 -162Q74 -197 65 -208T40 -219Q25 -219 21 -215T16 -198Q16 -183 23 -162Q34 -128 52 -75T93 39T137 160T176 268Q202 339 213 380T227 434Q227 445 218 445Q213 445 205 442T185 433T161 421T139 409Q132 414 132 424Q132 428 135 431Q175 454 200 467T240 488T264 498T279 500Q287 500 289 495T291 481Q291 465 274 412T221 257Q193 176 182 127T170 62Q170 55 173 49T187 43Q211 43 246 63T317 114T384 177T432 237Q444 261 455 292T476 356T496 424T514 490L563 496Q571 496 571 489Q562 462 549 421T522 332T494 237T469 150T451 83T444 51Z"  />
<glyph unicode="&#xB6;" horiz-adv-x="490" d="M331 238H328Q280 238 236 246T158 273T104 322T83 394Q83 464 114 514T195 595T304 641T423 656Q452 656 492 657T568 662Q570 662 570 660Q570 658 569 654T566 647L542 638Q519 629 506 624T485 614T475 607T471 601Q453 538 437 479T408 374L331 87Q319 41 299 2T251 -66T185 -111T100 -128Q23 -128 23 -83Q23 -57 40 -40T83 -23Q106 -23 114 -36T122 -62Q122 -79 127 -83T140 -88Q163 -88 185 -79T226 -48T262 8T293 94L331 238Z"  />
<glyph unicode="&#xB7;" horiz-adv-x="261" d="M141 206Q120 206 110 219T99 248Q99 274 113 290T146 306Q166 306 176 294T187 265Q187 237 172 222T141 206Z"  />
<glyph unicode="&#xB8;" horiz-adv-x="490" d="M154 -92Q150 -92 150 -88L171 -62Q173 -57 178 -57Q219 -57 247 -70T275 -118Q275 -140 262 -159T225 -196T173 -226T112 -247Q108 -247 108 -242Q108 -239 109 -233T114 -226Q162 -211 196 -185T230 -126Q230 -106 209 -99T161 -92H154Z"  />
<glyph unicode="&#xB9;" horiz-adv-x="353" d="M312 704Q304 674 293 631T272 546T254 474T247 436Q247 430 282 420L293 417Q295 416 295 413Q295 407 293 407Q257 410 220 410Q203 410 188 410T154 407Q153 407 153 409T152 413Q152 416 154 417L161 419Q187 427 193 431T201 440Q206 457 211 478T222 519T231 558T239 588Q242 600 247 620T257 661T265 698T269 718Q269 724 259 726T214 733Q212 734 212 737Q212 743 214 743Q241 744 269 746T321 753Q326 753 326 750Q323 741 320 733T312 704Z"  />
<glyph unicode="&#xBA;" horiz-adv-x="428" d="M135 423Q135 455 149 496T188 575T247 638T320 664Q339 664 352 655T374 632T386 600T390 567Q390 533 375 492T334 414T273 352T198 327Q178 327 166 336T147 358T138 389T135 423ZM173 453Q173 419 183 392T221 365Q249 365 273 382T315 426T343 482T353 538Q353 553 350 568T340 597T321 618T293 626Q267 626 245 608T207 564T182 508T173 453Z"  />
<glyph unicode="&#xBB;" horiz-adv-x="464" d="M397 256Q397 251 394 245T377 223L245 68Q241 64 236 64H220Q219 64 219 65V67Q260 124 285 159T325 216T345 246T350 260Q350 265 348 276T339 307T323 359T297 439Q297 442 301 442H315Q320 442 321 438L389 281Q394 270 395 265T397 256ZM232 256Q232 251 229 244T213 223L80 68Q76 64 72 64H56Q54 64 54 67Q96 124 121 159T161 216T180 246T185 260Q185 265 183 276T174 307T158 359T132 439Q132 442 136 442H150Q156 442 157 438L224 281Q229 270 230 265T232 256Z"  />
<glyph unicode="&#xBC;" horiz-adv-x="745" d="M692 654H732L158 0H117L692 654ZM644 301H640Q598 257 557 211T478 119H599L644 301ZM576 30Q580 38 584 54T594 94H447Q444 94 444 96L446 112Q447 117 450 121Q470 143 498 175T556 239T614 302T663 350L688 351Q694 351 694 349Q689 331 683 306T672 264L639 119H697Q700 119 700 116L696 97Q694 94 692 94H634Q629 68 625 50T621 27Q621 25 628 22T655 13L667 9Q669 8 669 5Q669 -1 667 -1Q650 1 631 1T593 2Q575 2 561 2T528 -1Q527 -1 527 1T527 5Q527 8 529 9L539 12Q563 20 568 22T576 30ZM303 614Q295 584 284 541T263 456T245 384T238 346Q238 340 273 330L284 327Q286 326 286 323Q286 317 284 317Q248 320 211 320Q194 320 179 320T145 317Q144 317 144 319T143 323Q143 326 145 327L152 329Q178 337 184 341T192 350Q197 367 202 387T213 428T222 467T230 498Q233 510 238 530T248 571T256 608T260 628Q260 634 250 636T205 643Q203 644 203 647Q203 653 205 653Q232 654 260 656T312 663Q317 663 317 660Q314 651 311 643T303 614Z"  />
<glyph unicode="&#xBD;" horiz-adv-x="745" d="M692 654H732L158 0H117L692 654ZM594 321Q556 321 521 292Q519 290 517 290Q515 290 512 293T508 300Q527 322 553 336T612 351Q649 351 673 332T697 271Q697 244 681 217T640 163T583 111T520 63L488 39V35L621 39Q631 39 638 48T655 74L661 85Q661 87 666 87Q670 87 670 85Q665 71 660 49T652 16L650 2Q650 -1 645 -1Q618 1 594 1T542 2Q514 2 488 2T434 -1Q432 -1 432 3L436 22Q485 59 524 90T592 150T635 206T650 262Q650 289 636 305T594 321ZM303 614Q295 584 284 541T263 456T245 384T238 346Q238 340 273 330L284 327Q286 326 286 323Q286 317 284 317Q248 320 211 320Q194 320 179 320T145 317Q144 317 144 319T143 323Q143 326 145 327L152 329Q178 337 184 341T192 350Q197 367 202 387T213 428T222 467T230 498Q233 510 238 530T248 571T256 608T260 628Q260 634 250 636T205 643Q203 644 203 647Q203 653 205 653Q232 654 260 656T312 663Q317 663 317 660Q314 651 311 643T303 614Z"  />
<glyph unicode="&#xBE;" horiz-adv-x="745" d="M113 328Q138 328 166 333T220 352T261 384T278 433Q278 466 257 480T198 496Q195 496 195 504Q195 510 198 512Q236 516 262 535T289 592Q289 613 276 626T239 640Q225 640 211 636T183 623Q179 621 178 621Q175 621 173 626T171 633Q188 648 209 657T256 666Q295 666 315 647T335 602Q335 583 327 568T307 541T279 522T248 511V507Q280 505 303 489T326 438Q326 399 305 374T251 335T182 315T115 309Q113 309 111 313T109 322Q109 328 113 328ZM692 654H732L158 0H117L692 654ZM644 301H640Q598 257 557 211T478 119H599L644 301ZM576 30Q580 38 584 54T594 94H447Q444 94 444 96L446 112Q447 117 450 121Q470 143 498 175T556 239T614 302T663 350L688 351Q694 351 694 349Q689 331 683 306T672 264L639 119H697Q700 119 700 116L696 97Q694 94 692 94H634Q629 68 625 50T621 27Q621 25 628 22T655 13L667 9Q669 8 669 5Q669 -1 667 -1Q650 1 631 1T593 2Q575 2 561 2T528 -1Q527 -1 527 1T527 5Q527 8 529 9L539 12Q563 20 568 22T576 30Z"  />
<glyph unicode="&#xBF;" horiz-adv-x="464" d="M342 298Q330 243 296 204T206 128Q181 111 159 94T120 57T93 11T83 -45Q83 -80 94 -104T125 -144T170 -166T225 -173Q243 -173 261 -171T295 -161Q305 -153 317 -129T341 -82L355 -53Q357 -48 364 -48Q370 -48 370 -53Q365 -76 361 -105T354 -152L351 -175Q350 -180 341 -182Q306 -193 276 -197T207 -202Q170 -202 137 -193T79 -166T39 -119T24 -53Q24 -12 36 19T70 74T122 117T187 157Q235 183 267 218T313 297Q315 300 318 301T330 303Q338 303 340 302T342 298ZM357 494Q377 494 387 482T398 454Q398 428 384 413T353 397Q333 397 323 409T313 437Q313 464 327 479T357 494Z"  />
<glyph unicode="&#xC0;" horiz-adv-x="631" d="M423 565H419L229 267H449L423 565ZM470 663Q483 501 496 350T521 67Q523 49 526 43T540 31L599 10Q601 9 601 7T601 4Q601 2 600 -1T597 -5Q571 -1 550 0T494 2Q421 2 364 -4Q361 -4 361 3Q361 9 364 11L379 15Q406 22 422 26T448 35T460 42T464 50Q464 64 463 88T460 140T456 191T453 230Q421 232 388 232T322 232Q290 232 263 232T205 230Q152 151 125 105T97 46Q97 43 100 41T113 34T140 25T186 11Q188 10 188 3Q188 -4 184 -4Q161 -1 128 0T59 2Q36 2 10 1T-42 -4Q-44 -4 -44 3Q-44 10 -41 11L-26 16Q-8 22 3 26T22 35T35 44T46 57Q86 112 138 189T245 349T353 514T450 663Q453 667 455 667H466Q470 667 470 663ZM364 791Q346 803 340 811T333 827Q333 837 340 843T357 850Q371 850 381 842T399 823L501 713Q501 709 487 709L364 791Z"  />
<glyph unicode="&#xC1;" horiz-adv-x="631" d="M423 565H419L229 267H449L423 565ZM470 663Q483 501 496 350T521 67Q523 49 526 43T540 31L599 10Q601 9 601 7T601 4Q601 2 600 -1T597 -5Q571 -1 550 0T494 2Q421 2 364 -4Q361 -4 361 3Q361 9 364 11L379 15Q406 22 422 26T448 35T460 42T464 50Q464 64 463 88T460 140T456 191T453 230Q421 232 388 232T322 232Q290 232 263 232T205 230Q152 151 125 105T97 46Q97 43 100 41T113 34T140 25T186 11Q188 10 188 3Q188 -4 184 -4Q161 -1 128 0T59 2Q36 2 10 1T-42 -4Q-44 -4 -44 3Q-44 10 -41 11L-26 16Q-8 22 3 26T22 35T35 44T46 57Q86 112 138 189T245 349T353 514T450 663Q453 667 455 667H466Q470 667 470 663ZM445 709Q431 709 431 716L548 829Q560 840 569 847T589 854Q600 854 607 848T614 832Q614 824 607 815T578 793L445 709Z"  />
<glyph unicode="&#xC2;" horiz-adv-x="631" d="M423 565H419L229 267H449L423 565ZM470 663Q483 501 496 350T521 67Q523 49 526 43T540 31L599 10Q601 9 601 7T601 4Q601 2 600 -1T597 -5Q571 -1 550 0T494 2Q421 2 364 -4Q361 -4 361 3Q361 9 364 11L379 15Q406 22 422 26T448 35T460 42T464 50Q464 64 463 88T460 140T456 191T453 230Q421 232 388 232T322 232Q290 232 263 232T205 230Q152 151 125 105T97 46Q97 43 100 41T113 34T140 25T186 11Q188 10 188 3Q188 -4 184 -4Q161 -1 128 0T59 2Q36 2 10 1T-42 -4Q-44 -4 -44 3Q-44 10 -41 11L-26 16Q-8 22 3 26T22 35T35 44T46 57Q86 112 138 189T245 349T353 514T450 663Q453 667 455 667H466Q470 667 470 663ZM495 800H491L335 711Q322 711 322 719L450 817Q467 831 475 835T495 840Q509 840 515 836T529 818L594 719Q594 711 580 711L495 800Z"  />
<glyph unicode="&#xC3;" horiz-adv-x="631" d="M423 565H419L229 267H449L423 565ZM470 663Q483 501 496 350T521 67Q523 49 526 43T540 31L599 10Q601 9 601 7T601 4Q601 2 600 -1T597 -5Q571 -1 550 0T494 2Q421 2 364 -4Q361 -4 361 3Q361 9 364 11L379 15Q406 22 422 26T448 35T460 42T464 50Q464 64 463 88T460 140T456 191T453 230Q421 232 388 232T322 232Q290 232 263 232T205 230Q152 151 125 105T97 46Q97 43 100 41T113 34T140 25T186 11Q188 10 188 3Q188 -4 184 -4Q161 -1 128 0T59 2Q36 2 10 1T-42 -4Q-44 -4 -44 3Q-44 10 -41 11L-26 16Q-8 22 3 26T22 35T35 44T46 57Q86 112 138 189T245 349T353 514T450 663Q453 667 455 667H466Q470 667 470 663ZM631 819Q617 781 594 759T541 736Q523 736 507 742T464 763Q443 775 430 781T400 787Q384 787 367 776T336 736Q318 736 318 745Q335 785 358 804T407 824Q427 824 443 817T479 799Q498 788 515 780T549 771Q569 771 585 784T615 828Q631 828 631 819Z"  />
<glyph unicode="&#xC4;" horiz-adv-x="631" d="M423 565H419L229 267H449L423 565ZM470 663Q483 501 496 350T521 67Q523 49 526 43T540 31L599 10Q601 9 601 7T601 4Q601 2 600 -1T597 -5Q571 -1 550 0T494 2Q421 2 364 -4Q361 -4 361 3Q361 9 364 11L379 15Q406 22 422 26T448 35T460 42T464 50Q464 64 463 88T460 140T456 191T453 230Q421 232 388 232T322 232Q290 232 263 232T205 230Q152 151 125 105T97 46Q97 43 100 41T113 34T140 25T186 11Q188 10 188 3Q188 -4 184 -4Q161 -1 128 0T59 2Q36 2 10 1T-42 -4Q-44 -4 -44 3Q-44 10 -41 11L-26 16Q-8 22 3 26T22 35T35 44T46 57Q86 112 138 189T245 349T353 514T450 663Q453 667 455 667H466Q470 667 470 663ZM380 736Q362 736 355 746T348 767Q348 788 360 801T389 814Q405 814 412 806T420 784Q420 761 407 749T380 736ZM548 736Q531 736 524 746T516 767Q516 788 529 801T557 814Q574 814 581 806T589 784Q589 761 576 749T548 736Z"  />
<glyph unicode="&#xC5;" horiz-adv-x="631" d="M423 565H419L229 267H449L423 565ZM470 663Q483 501 496 350T521 67Q523 49 526 43T540 31L599 10Q601 9 601 7T601 4Q601 2 600 -1T597 -5Q571 -1 550 0T494 2Q421 2 364 -4Q361 -4 361 3Q361 9 364 11L379 15Q406 22 422 26T448 35T460 42T464 50Q464 64 463 88T460 140T456 191T453 230Q421 232 388 232T322 232Q290 232 263 232T205 230Q152 151 125 105T97 46Q97 43 100 41T113 34T140 25T186 11Q188 10 188 3Q188 -4 184 -4Q161 -1 128 0T59 2Q36 2 10 1T-42 -4Q-44 -4 -44 3Q-44 10 -41 11L-26 16Q-8 22 3 26T22 35T35 44T46 57Q86 112 138 189T245 349T353 514T450 663Q453 667 455 667H466Q470 667 470 663ZM398 809Q398 777 417 757T465 737Q494 737 513 757T533 809Q533 841 514 860T465 880Q436 880 417 861T398 809ZM371 810Q371 831 378 848T399 878T429 898T465 905Q505 905 532 879T560 810Q560 765 533 739T465 712Q425 712 398 738T371 810Z"  />
<glyph unicode="&#xC6;" horiz-adv-x="866" d="M418 562H415L226 267H445L418 562ZM479 2Q447 2 414 1T360 -4Q357 -4 357 3Q357 8 360 10L377 15Q405 22 422 27T447 35T457 42T460 50Q460 64 459 88T456 139T452 190T449 228Q417 230 385 230T320 230Q288 230 261 230T203 228Q151 150 124 105T96 47Q96 44 99 41T111 34T137 25T184 11Q186 10 186 3Q186 -4 182 -4Q149 0 120 1T55 2Q32 2 10 1T-42 -4Q-44 -4 -44 3Q-44 10 -41 11L-25 16Q-7 22 3 26T21 34T33 44T44 57Q81 108 126 174T220 313T316 460T405 599Q405 607 392 616T331 640L307 647Q304 648 304 652Q304 660 308 662Q324 660 339 659T374 657T424 656T498 656Q511 656 537 656T598 656T670 657T744 658T810 660T858 662Q866 662 866 656L861 632Q859 622 856 607T850 575T843 543T839 517Q838 514 833 514Q827 514 826 517Q824 552 822 577T813 613Q811 617 806 619T787 623T749 626T684 627Q664 627 634 627T572 626T510 624T460 620Q466 551 471 488T484 364H606Q650 364 675 365T713 368T733 375T745 388Q753 399 761 417T779 454Q781 458 786 458Q792 458 792 454Q775 389 765 338T746 235Q745 231 738 231Q732 231 732 235Q731 258 730 278T727 310Q725 318 722 322T706 329T670 333T603 334H489Q497 255 502 199T512 106T518 53T521 33Q535 31 549 31T582 31Q651 31 683 35T725 45Q738 56 754 86T791 158Q793 162 800 162Q806 162 806 158Q803 147 798 128T786 89T776 51T769 26L763 2Q761 -4 753 -4Q727 -2 688 -1T609 1T534 2T479 2Z"  />
<glyph unicode="&#xC7;" horiz-adv-x="599" d="M392 15Q419 15 437 22T462 37Q466 43 475 58T493 91T513 127T529 160Q530 162 536 162Q545 162 545 158Q542 142 538 122T528 82T518 41T509 4Q508 -1 503 -3Q475 -11 448 -15T386 -19Q308 -19 253 3T163 61T112 145T95 242Q95 349 134 430T236 566T372 648T518 676Q584 676 625 666Q629 664 629 660Q625 647 621 627T611 584T602 542T595 507Q595 503 586 503Q579 503 579 505Q578 520 577 537T575 571T573 601T570 622Q565 633 545 637T500 641Q442 641 382 617T272 544T190 423T158 257Q158 142 220 79T392 15ZM290 -92Q286 -92 286 -88L307 -62Q309 -57 314 -57Q355 -57 383 -70T411 -118Q411 -140 398 -159T361 -196T309 -226T248 -247Q244 -247 244 -242Q244 -239 245 -233T250 -226Q298 -211 332 -185T366 -126Q366 -106 345 -99T297 -92H290Z"  />
<glyph unicode="&#xC8;" horiz-adv-x="563" d="M5 -4Q2 -4 2 3Q2 9 7 10L30 17Q51 23 63 27T81 35T90 43T95 55Q102 81 115 129T142 236T172 357T199 473T219 564T227 611Q227 617 217 623T166 641L138 649Q135 650 135 654Q135 660 139 662Q170 660 208 658T281 656Q300 656 335 656T411 657T490 659T556 662Q563 662 563 656L558 632Q556 622 553 607T546 575T540 543T536 517Q535 514 530 514Q524 514 523 517Q521 552 519 577T511 613Q509 617 503 619T484 623T446 626T381 627Q362 627 339 626T289 623Q279 596 263 529T224 364H303Q347 364 372 365T410 368T430 375T442 388Q450 399 459 417T476 454Q478 458 484 458Q490 458 490 454Q473 389 463 338T443 235Q442 231 435 231Q429 231 429 235Q428 258 427 278T424 310Q422 318 419 322T404 329T368 333T300 334H218Q209 297 198 253T177 166T160 88T151 36Q177 33 211 32T279 31Q348 31 381 35T422 45Q435 56 452 86T488 158Q490 162 497 162Q503 162 503 158Q500 147 495 129T483 90T473 52T466 26L461 2Q459 -4 450 -4Q424 -2 377 -1T281 1T188 2T126 2Q91 2 62 1T5 -4ZM276 791Q258 803 252 811T245 827Q245 837 252 843T269 850Q283 850 293 842T311 823L413 713Q413 709 399 709L276 791Z"  />
<glyph unicode="&#xC9;" horiz-adv-x="563" d="M5 -4Q2 -4 2 3Q2 9 7 10L30 17Q51 23 63 27T81 35T90 43T95 55Q102 81 115 129T142 236T172 357T199 473T219 564T227 611Q227 617 217 623T166 641L138 649Q135 650 135 654Q135 660 139 662Q170 660 208 658T281 656Q300 656 335 656T411 657T490 659T556 662Q563 662 563 656L558 632Q556 622 553 607T546 575T540 543T536 517Q535 514 530 514Q524 514 523 517Q521 552 519 577T511 613Q509 617 503 619T484 623T446 626T381 627Q362 627 339 626T289 623Q279 596 263 529T224 364H303Q347 364 372 365T410 368T430 375T442 388Q450 399 459 417T476 454Q478 458 484 458Q490 458 490 454Q473 389 463 338T443 235Q442 231 435 231Q429 231 429 235Q428 258 427 278T424 310Q422 318 419 322T404 329T368 333T300 334H218Q209 297 198 253T177 166T160 88T151 36Q177 33 211 32T279 31Q348 31 381 35T422 45Q435 56 452 86T488 158Q490 162 497 162Q503 162 503 158Q500 147 495 129T483 90T473 52T466 26L461 2Q459 -4 450 -4Q424 -2 377 -1T281 1T188 2T126 2Q91 2 62 1T5 -4ZM362 709Q348 709 348 716L465 829Q477 840 486 847T506 854Q517 854 524 848T531 832Q531 824 524 815T495 793L362 709Z"  />
<glyph unicode="&#xCA;" horiz-adv-x="563" d="M5 -4Q2 -4 2 3Q2 9 7 10L30 17Q51 23 63 27T81 35T90 43T95 55Q102 81 115 129T142 236T172 357T199 473T219 564T227 611Q227 617 217 623T166 641L138 649Q135 650 135 654Q135 660 139 662Q170 660 208 658T281 656Q300 656 335 656T411 657T490 659T556 662Q563 662 563 656L558 632Q556 622 553 607T546 575T540 543T536 517Q535 514 530 514Q524 514 523 517Q521 552 519 577T511 613Q509 617 503 619T484 623T446 626T381 627Q362 627 339 626T289 623Q279 596 263 529T224 364H303Q347 364 372 365T410 368T430 375T442 388Q450 399 459 417T476 454Q478 458 484 458Q490 458 490 454Q473 389 463 338T443 235Q442 231 435 231Q429 231 429 235Q428 258 427 278T424 310Q422 318 419 322T404 329T368 333T300 334H218Q209 297 198 253T177 166T160 88T151 36Q177 33 211 32T279 31Q348 31 381 35T422 45Q435 56 452 86T488 158Q490 162 497 162Q503 162 503 158Q500 147 495 129T483 90T473 52T466 26L461 2Q459 -4 450 -4Q424 -2 377 -1T281 1T188 2T126 2Q91 2 62 1T5 -4ZM425 800H421L265 711Q252 711 252 719L380 817Q397 831 405 835T425 840Q439 840 445 836T459 818L524 719Q524 711 510 711L425 800Z"  />
<glyph unicode="&#xCB;" horiz-adv-x="563" d="M5 -4Q2 -4 2 3Q2 9 7 10L30 17Q51 23 63 27T81 35T90 43T95 55Q102 81 115 129T142 236T172 357T199 473T219 564T227 611Q227 617 217 623T166 641L138 649Q135 650 135 654Q135 660 139 662Q170 660 208 658T281 656Q300 656 335 656T411 657T490 659T556 662Q563 662 563 656L558 632Q556 622 553 607T546 575T540 543T536 517Q535 514 530 514Q524 514 523 517Q521 552 519 577T511 613Q509 617 503 619T484 623T446 626T381 627Q362 627 339 626T289 623Q279 596 263 529T224 364H303Q347 364 372 365T410 368T430 375T442 388Q450 399 459 417T476 454Q478 458 484 458Q490 458 490 454Q473 389 463 338T443 235Q442 231 435 231Q429 231 429 235Q428 258 427 278T424 310Q422 318 419 322T404 329T368 333T300 334H218Q209 297 198 253T177 166T160 88T151 36Q177 33 211 32T279 31Q348 31 381 35T422 45Q435 56 452 86T488 158Q490 162 497 162Q503 162 503 158Q500 147 495 129T483 90T473 52T466 26L461 2Q459 -4 450 -4Q424 -2 377 -1T281 1T188 2T126 2Q91 2 62 1T5 -4ZM314 736Q296 736 289 746T282 767Q282 788 294 801T323 814Q339 814 346 806T354 784Q354 761 341 749T314 736ZM482 736Q465 736 458 746T450 767Q450 788 463 801T491 814Q508 814 515 806T523 784Q523 761 510 749T482 736Z"  />
<glyph unicode="&#xCC;" horiz-adv-x="297" d="M153 46Q153 43 155 40T163 34T181 27T213 17L240 9Q243 7 243 4Q243 -2 239 -4Q188 2 116 2Q81 2 55 1T5 -4Q2 -4 2 3Q2 9 7 10L30 17Q51 23 63 27T81 35T90 43T95 55Q102 81 115 129T142 236T172 357T199 473T219 564T227 611Q227 617 217 623T166 641L138 649Q135 650 135 654Q135 660 139 662Q190 656 263 656Q298 656 324 657T373 662Q376 662 376 655Q376 649 371 648L354 643Q331 637 318 633T298 624T289 615T285 603Q278 577 266 527T239 416T209 291T181 174T161 86T153 46ZM153 791Q135 803 129 811T122 827Q122 837 129 843T146 850Q160 850 170 842T188 823L290 713Q290 709 276 709L153 791Z"  />
<glyph unicode="&#xCD;" horiz-adv-x="297" d="M153 46Q153 43 155 40T163 34T181 27T213 17L240 9Q243 7 243 4Q243 -2 239 -4Q188 2 116 2Q81 2 55 1T5 -4Q2 -4 2 3Q2 9 7 10L30 17Q51 23 63 27T81 35T90 43T95 55Q102 81 115 129T142 236T172 357T199 473T219 564T227 611Q227 617 217 623T166 641L138 649Q135 650 135 654Q135 660 139 662Q190 656 263 656Q298 656 324 657T373 662Q376 662 376 655Q376 649 371 648L354 643Q331 637 318 633T298 624T289 615T285 603Q278 577 266 527T239 416T209 291T181 174T161 86T153 46ZM255 709Q241 709 241 716L358 829Q370 840 379 847T399 854Q410 854 417 848T424 832Q424 824 417 815T388 793L255 709Z"  />
<glyph unicode="&#xCE;" horiz-adv-x="297" d="M153 46Q153 43 155 40T163 34T181 27T213 17L240 9Q243 7 243 4Q243 -2 239 -4Q188 2 116 2Q81 2 55 1T5 -4Q2 -4 2 3Q2 9 7 10L30 17Q51 23 63 27T81 35T90 43T95 55Q102 81 115 129T142 236T172 357T199 473T219 564T227 611Q227 617 217 623T166 641L138 649Q135 650 135 654Q135 660 139 662Q190 656 263 656Q298 656 324 657T373 662Q376 662 376 655Q376 649 371 648L354 643Q331 637 318 633T298 624T289 615T285 603Q278 577 266 527T239 416T209 291T181 174T161 86T153 46ZM302 800H298L142 711Q129 711 129 719L257 817Q274 831 282 835T302 840Q316 840 322 836T336 818L401 719Q401 711 387 711L302 800Z"  />
<glyph unicode="&#xCF;" horiz-adv-x="297" d="M153 46Q153 43 155 40T163 34T181 27T213 17L240 9Q243 7 243 4Q243 -2 239 -4Q188 2 116 2Q81 2 55 1T5 -4Q2 -4 2 3Q2 9 7 10L30 17Q51 23 63 27T81 35T90 43T95 55Q102 81 115 129T142 236T172 357T199 473T219 564T227 611Q227 617 217 623T166 641L138 649Q135 650 135 654Q135 660 139 662Q190 656 263 656Q298 656 324 657T373 662Q376 662 376 655Q376 649 371 648L354 643Q331 637 318 633T298 624T289 615T285 603Q278 577 266 527T239 416T209 291T181 174T161 86T153 46ZM189 736Q171 736 164 746T157 767Q157 788 169 801T198 814Q214 814 221 806T229 784Q229 761 216 749T189 736ZM357 736Q340 736 333 746T325 767Q325 788 338 801T366 814Q383 814 390 806T398 784Q398 761 385 749T357 736Z"  />
<glyph unicode="&#xD0;" horiz-adv-x="675" d="M139 662Q190 656 259 656Q297 656 324 659T375 662Q511 662 580 600T650 424Q650 316 614 236T518 102T384 22T231 -4Q207 -4 176 -1T116 2Q81 2 55 1T5 -4Q2 -4 2 3Q2 9 7 10L30 17Q51 23 63 27T81 35T90 43T95 55Q100 73 108 103T125 170T145 249T167 334H92Q87 334 87 338L93 357Q94 361 101 361H173Q184 406 193 448T210 523T222 580T227 611Q227 617 217 623T166 641L138 649Q135 650 135 654Q135 660 139 662ZM589 418Q589 477 571 518T523 584T451 620T361 631Q324 631 288 625Q272 562 256 496T223 361H355Q360 361 360 358L354 338Q353 334 346 334H218Q200 258 183 183T152 35Q158 34 168 33T190 30T213 29T231 28Q306 28 371 54T485 131T561 254T589 418Z"  />
<glyph unicode="&#xD1;" horiz-adv-x="698" d="M630 606Q630 617 617 623T563 641L536 649Q533 650 533 654Q533 660 537 662Q588 656 661 656Q696 656 722 657T771 662Q774 662 774 655Q774 649 769 648L752 643Q729 636 715 632T693 623T682 615T677 603Q667 566 654 512T625 397T596 273T568 155T546 58T532 -5Q531 -9 527 -9H521Q516 -9 514 -4Q489 62 460 133T399 277Q365 353 331 428T263 576H259Q242 512 223 433T187 278T156 142T138 53Q138 45 158 36T215 18L240 11Q243 9 243 3Q243 -4 239 -4Q213 -1 180 0T112 2Q77 2 53 1T0 -4Q-3 -4 -3 3Q-3 10 0 11L16 16Q39 23 52 28T73 38T84 47T89 56Q100 93 114 143T142 248T170 359T195 464T215 552T228 611Q228 617 218 623T167 641L139 649Q136 650 136 654Q136 659 139 662Q173 658 209 657T280 656Q285 656 288 655T295 646Q301 629 316 590T356 496Q398 403 439 311T524 128H528Q544 192 560 265T591 406T616 526T630 606ZM640 819Q626 781 603 759T550 736Q532 736 516 742T473 763Q452 775 439 781T409 787Q393 787 376 776T345 736Q327 736 327 745Q344 785 367 804T416 824Q436 824 452 817T488 799Q507 788 524 780T558 771Q578 771 594 784T624 828Q640 828 640 819Z"  />
<glyph unicode="&#xD2;" horiz-adv-x="697" d="M100 221Q100 269 111 321T145 424T199 520T273 600T363 655T470 676Q524 676 562 659T623 611T656 537T667 442Q667 361 643 279T571 131T456 23T300 -19Q245 -19 207 0T145 53T111 129T100 221ZM160 230Q160 191 168 153T196 83T245 33T318 14Q371 14 413 35T487 90T543 169T581 260T603 353T610 437Q610 479 602 516T576 582T528 628T455 645Q408 645 368 627T295 577T237 505T195 417T169 323T160 230ZM391 791Q373 803 367 811T360 827Q360 837 367 843T384 850Q398 850 408 842T426 823L528 713Q528 709 514 709L391 791Z"  />
<glyph unicode="&#xD3;" horiz-adv-x="697" d="M100 221Q100 269 111 321T145 424T199 520T273 600T363 655T470 676Q524 676 562 659T623 611T656 537T667 442Q667 361 643 279T571 131T456 23T300 -19Q245 -19 207 0T145 53T111 129T100 221ZM160 230Q160 191 168 153T196 83T245 33T318 14Q371 14 413 35T487 90T543 169T581 260T603 353T610 437Q610 479 602 516T576 582T528 628T455 645Q408 645 368 627T295 577T237 505T195 417T169 323T160 230ZM443 709Q429 709 429 716L546 829Q558 840 567 847T587 854Q598 854 605 848T612 832Q612 824 605 815T576 793L443 709Z"  />
<glyph unicode="&#xD4;" horiz-adv-x="697" d="M100 221Q100 269 111 321T145 424T199 520T273 600T363 655T470 676Q524 676 562 659T623 611T656 537T667 442Q667 361 643 279T571 131T456 23T300 -19Q245 -19 207 0T145 53T111 129T100 221ZM160 230Q160 191 168 153T196 83T245 33T318 14Q371 14 413 35T487 90T543 169T581 260T603 353T610 437Q610 479 602 516T576 582T528 628T455 645Q408 645 368 627T295 577T237 505T195 417T169 323T160 230ZM502 800H498L342 711Q329 711 329 719L457 817Q474 831 482 835T502 840Q516 840 522 836T536 818L601 719Q601 711 587 711L502 800Z"  />
<glyph unicode="&#xD5;" horiz-adv-x="697" d="M100 221Q100 269 111 321T145 424T199 520T273 600T363 655T470 676Q524 676 562 659T623 611T656 537T667 442Q667 361 643 279T571 131T456 23T300 -19Q245 -19 207 0T145 53T111 129T100 221ZM160 230Q160 191 168 153T196 83T245 33T318 14Q371 14 413 35T487 90T543 169T581 260T603 353T610 437Q610 479 602 516T576 582T528 628T455 645Q408 645 368 627T295 577T237 505T195 417T169 323T160 230ZM658 819Q644 781 621 759T568 736Q550 736 534 742T491 763Q470 775 457 781T427 787Q411 787 394 776T363 736Q345 736 345 745Q362 785 385 804T434 824Q454 824 470 817T506 799Q525 788 542 780T576 771Q596 771 612 784T642 828Q658 828 658 819Z"  />
<glyph unicode="&#xD6;" horiz-adv-x="697" d="M100 221Q100 269 111 321T145 424T199 520T273 600T363 655T470 676Q524 676 562 659T623 611T656 537T667 442Q667 361 643 279T571 131T456 23T300 -19Q245 -19 207 0T145 53T111 129T100 221ZM160 230Q160 191 168 153T196 83T245 33T318 14Q371 14 413 35T487 90T543 169T581 260T603 353T610 437Q610 479 602 516T576 582T528 628T455 645Q408 645 368 627T295 577T237 505T195 417T169 323T160 230ZM393 736Q375 736 368 746T361 767Q361 788 373 801T402 814Q418 814 425 806T433 784Q433 761 420 749T393 736ZM561 736Q544 736 537 746T529 767Q529 788 542 801T570 814Q587 814 594 806T602 784Q602 761 589 749T561 736Z"  />
<glyph unicode="&#xD7;" horiz-adv-x="529" d="M463 9L266 209L67 10L41 34L240 233L41 432L65 457L265 257L463 456L488 432L289 233L488 34L463 9Z"  />
<glyph unicode="&#xD8;" horiz-adv-x="697" d="M631 600Q651 570 659 530T667 442Q667 361 643 279T571 131T456 23T300 -19Q245 -19 208 0T146 51L85 -18Q77 -18 70 -11T63 3L129 78Q114 109 107 145T100 221Q100 269 111 321T145 424T199 520T273 600T363 655T470 676Q519 676 554 663T612 623L664 682Q672 682 679 675T686 662L631 600ZM610 437Q610 469 606 498T590 553L187 98Q206 61 237 38T318 14Q371 14 413 35T487 90T543 169T581 260T603 353T610 437ZM160 230Q160 179 174 129L575 582Q557 611 528 628T455 645Q408 645 368 627T295 577T237 505T195 417T169 323T160 230Z"  />
<glyph unicode="&#xD9;" horiz-adv-x="716" d="M655 608Q655 618 642 624T589 641L562 649Q559 650 559 654Q559 660 563 662Q614 656 686 656Q721 656 747 657T797 662Q800 662 800 655Q800 649 795 648L777 643Q754 637 741 633T720 625T710 617T705 605Q692 553 678 492T650 373T625 264T606 184Q596 139 574 102T518 37T440 -4T342 -19Q296 -19 256 -12T185 14T138 63T120 139Q120 189 134 243T159 345Q165 369 175 410T194 494T210 569T217 611Q217 617 206 623T155 641L127 649Q124 650 124 654Q124 660 128 662Q180 656 252 656Q287 656 313 657T363 662Q366 662 366 655Q366 649 361 648L343 643Q320 637 307 633T286 624T276 615T272 603L217 369Q199 294 188 243T177 151Q177 111 190 85T226 44T278 22T341 16Q380 16 415 24T480 53T532 106T567 191Q583 255 597 317T623 435T643 535T655 608ZM356 791Q338 803 332 811T325 827Q325 837 332 843T349 850Q363 850 373 842T391 823L493 713Q493 709 479 709L356 791Z"  />
<glyph unicode="&#xDA;" horiz-adv-x="716" d="M655 608Q655 618 642 624T589 641L562 649Q559 650 559 654Q559 660 563 662Q614 656 686 656Q721 656 747 657T797 662Q800 662 800 655Q800 649 795 648L777 643Q754 637 741 633T720 625T710 617T705 605Q692 553 678 492T650 373T625 264T606 184Q596 139 574 102T518 37T440 -4T342 -19Q296 -19 256 -12T185 14T138 63T120 139Q120 189 134 243T159 345Q165 369 175 410T194 494T210 569T217 611Q217 617 206 623T155 641L127 649Q124 650 124 654Q124 660 128 662Q180 656 252 656Q287 656 313 657T363 662Q366 662 366 655Q366 649 361 648L343 643Q320 637 307 633T286 624T276 615T272 603L217 369Q199 294 188 243T177 151Q177 111 190 85T226 44T278 22T341 16Q380 16 415 24T480 53T532 106T567 191Q583 255 597 317T623 435T643 535T655 608ZM477 709Q463 709 463 716L580 829Q592 840 601 847T621 854Q632 854 639 848T646 832Q646 824 639 815T610 793L477 709Z"  />
<glyph unicode="&#xDB;" horiz-adv-x="716" d="M655 608Q655 618 642 624T589 641L562 649Q559 650 559 654Q559 660 563 662Q614 656 686 656Q721 656 747 657T797 662Q800 662 800 655Q800 649 795 648L777 643Q754 637 741 633T720 625T710 617T705 605Q692 553 678 492T650 373T625 264T606 184Q596 139 574 102T518 37T440 -4T342 -19Q296 -19 256 -12T185 14T138 63T120 139Q120 189 134 243T159 345Q165 369 175 410T194 494T210 569T217 611Q217 617 206 623T155 641L127 649Q124 650 124 654Q124 660 128 662Q180 656 252 656Q287 656 313 657T363 662Q366 662 366 655Q366 649 361 648L343 643Q320 637 307 633T286 624T276 615T272 603L217 369Q199 294 188 243T177 151Q177 111 190 85T226 44T278 22T341 16Q380 16 415 24T480 53T532 106T567 191Q583 255 597 317T623 435T643 535T655 608ZM516 800H512L356 711Q343 711 343 719L471 817Q488 831 496 835T516 840Q530 840 536 836T550 818L615 719Q615 711 601 711L516 800Z"  />
<glyph unicode="&#xDC;" horiz-adv-x="716" d="M655 608Q655 618 642 624T589 641L562 649Q559 650 559 654Q559 660 563 662Q614 656 686 656Q721 656 747 657T797 662Q800 662 800 655Q800 649 795 648L777 643Q754 637 741 633T720 625T710 617T705 605Q692 553 678 492T650 373T625 264T606 184Q596 139 574 102T518 37T440 -4T342 -19Q296 -19 256 -12T185 14T138 63T120 139Q120 189 134 243T159 345Q165 369 175 410T194 494T210 569T217 611Q217 617 206 623T155 641L127 649Q124 650 124 654Q124 660 128 662Q180 656 252 656Q287 656 313 657T363 662Q366 662 366 655Q366 649 361 648L343 643Q320 637 307 633T286 624T276 615T272 603L217 369Q199 294 188 243T177 151Q177 111 190 85T226 44T278 22T341 16Q380 16 415 24T480 53T532 106T567 191Q583 255 597 317T623 435T643 535T655 608ZM407 736Q389 736 382 746T375 767Q375 788 387 801T416 814Q432 814 439 806T447 784Q447 761 434 749T407 736ZM575 736Q558 736 551 746T543 767Q543 788 556 801T584 814Q601 814 608 806T616 784Q616 761 603 749T575 736Z"  />
<glyph unicode="&#xDD;" horiz-adv-x="583" d="M278 252Q269 290 258 336T234 429T209 520T186 600Q183 611 179 617T164 628L105 647Q103 648 103 650T103 653Q103 655 104 658T107 662Q133 659 156 658T209 656Q233 656 266 657T329 662Q332 662 332 655Q332 649 329 647L312 643Q288 637 274 634T253 627T244 619T242 610Q242 605 245 591T252 556T262 514T272 471L318 289H322Q362 339 403 394T479 496T534 577T556 616Q556 623 543 627T490 642L469 647Q467 648 467 655Q467 662 471 662Q504 658 530 657T577 656Q600 656 629 657T688 662Q690 662 690 655Q690 648 687 647L671 642Q653 636 642 632T623 624T612 616T603 607Q579 575 545 529T472 433T395 335T327 249Q323 234 316 203T301 138T288 78T282 46Q282 39 294 34T342 17L369 9Q372 7 372 3Q372 -4 368 -4Q335 0 309 1T247 2Q230 2 217 2T191 1T166 -1T137 -4Q134 -4 134 3Q134 9 138 10L152 14Q177 21 191 25T212 34T221 42T225 51Q241 106 254 156T278 252ZM418 709Q404 709 404 716L521 829Q533 840 542 847T562 854Q573 854 580 848T587 832Q587 824 580 815T551 793L418 709Z"  />
<glyph unicode="&#xDE;" horiz-adv-x="544" d="M187 197Q170 128 162 90T153 46Q153 39 163 33T213 17L240 9Q243 7 243 4Q243 -2 239 -4Q188 2 116 2Q81 2 55 1T5 -4Q2 -4 2 3Q2 9 7 10L30 17Q51 23 63 27T81 35T90 43T95 55Q102 81 115 129T142 236T172 357T199 473T219 564T227 611Q227 617 217 623T166 641L138 649Q135 650 135 654Q135 660 139 662Q190 656 263 656Q298 656 324 657T373 662Q376 662 376 655Q376 649 371 648L354 643Q331 637 319 633T299 624T290 615T285 603Q281 592 278 579T270 547Q279 549 295 550T318 551Q365 551 405 544T475 521T521 477T538 411Q538 354 514 314T445 247T334 209T187 197ZM193 224Q259 224 312 233T402 263T460 320T481 407Q481 441 468 463T433 498T381 516T316 522Q283 522 265 519L193 224Z"  />
<glyph unicode="&#xDF;" horiz-adv-x="529" d="M294 -8Q274 -8 255 -7T222 -2T200 5T191 16Q191 24 198 59T217 137Q220 140 227 140Q233 140 233 136Q235 90 236 69T241 41Q249 30 271 25T315 20Q337 20 359 27T397 49T424 88T435 147Q435 189 417 218T377 272T337 321T319 377Q319 403 331 422T363 456T404 486T445 519T476 560T489 618Q489 650 467 674T396 699Q363 699 337 686T291 647T257 587T232 510L123 61Q110 8 95 -43T55 -134T-6 -198T-97 -223Q-122 -223 -129 -220T-136 -209Q-136 -206 -135 -195T-131 -166T-127 -129T-123 -88Q-121 -85 -112 -85Q-105 -85 -105 -90Q-98 -144 -89 -167T-68 -191Q-28 -191 3 -154T51 -45L173 476Q184 522 205 567T258 649T330 707T418 730Q472 730 503 701T534 624Q534 590 521 566T489 522T447 487T405 459T372 431T359 398Q359 365 378 340T421 288T463 232T483 161Q483 126 470 95T433 41T373 5T294 -8Z"  />
<glyph unicode="&#xE0;" horiz-adv-x="514" d="M366 56Q366 48 373 48Q384 48 410 62T462 90Q468 88 468 76Q468 70 465 67Q432 46 410 32T372 8T346 -4T329 -8Q320 -8 315 -3T310 16Q310 25 312 40T319 74T329 114T341 155L338 157Q320 128 295 99T242 46T185 7T132 -8Q110 -8 94 1T68 26T54 61T49 99Q49 184 82 257T168 385T284 470T406 501Q422 501 444 499T481 492Q487 490 487 484Q478 461 466 424T440 344T413 256T390 171T373 100T366 56ZM421 450Q421 454 416 456Q409 458 401 458T377 459Q321 459 272 433T185 361T126 258T104 135Q104 97 117 69T160 40Q181 40 206 54T255 91T301 139T338 190Q347 205 358 234T379 298T399 364T414 420L421 450ZM268 657Q252 672 245 681T237 702Q237 713 244 719T263 726Q276 726 284 717T300 693L389 556Q389 550 375 550L268 657Z"  />
<glyph unicode="&#xE1;" horiz-adv-x="514" d="M366 56Q366 48 373 48Q384 48 410 62T462 90Q468 88 468 76Q468 70 465 67Q432 46 410 32T372 8T346 -4T329 -8Q320 -8 315 -3T310 16Q310 25 312 40T319 74T329 114T341 155L338 157Q320 128 295 99T242 46T185 7T132 -8Q110 -8 94 1T68 26T54 61T49 99Q49 184 82 257T168 385T284 470T406 501Q422 501 444 499T481 492Q487 490 487 484Q478 461 466 424T440 344T413 256T390 171T373 100T366 56ZM421 450Q421 454 416 456Q409 458 401 458T377 459Q321 459 272 433T185 361T126 258T104 135Q104 97 117 69T160 40Q181 40 206 54T255 91T301 139T338 190Q347 205 358 234T379 298T399 364T414 420L421 450ZM342 550Q327 550 327 556L437 692Q451 709 460 717T480 726Q488 726 496 720T504 706Q504 695 494 684T467 659L342 550Z"  />
<glyph unicode="&#xE2;" horiz-adv-x="514" d="M366 56Q366 48 373 48Q384 48 410 62T462 90Q468 88 468 76Q468 70 465 67Q432 46 410 32T372 8T346 -4T329 -8Q320 -8 315 -3T310 16Q310 25 312 40T319 74T329 114T341 155L338 157Q320 128 295 99T242 46T185 7T132 -8Q110 -8 94 1T68 26T54 61T49 99Q49 184 82 257T168 385T284 470T406 501Q422 501 444 499T481 492Q487 490 487 484Q478 461 466 424T440 344T413 256T390 171T373 100T366 56ZM421 450Q421 454 416 456Q409 458 401 458T377 459Q321 459 272 433T185 361T126 258T104 135Q104 97 117 69T160 40Q181 40 206 54T255 91T301 139T338 190Q347 205 358 234T379 298T399 364T414 420L421 450ZM400 673H396L237 564Q223 564 223 572L360 694Q375 708 383 712T402 717Q416 717 422 713T436 694L494 572Q494 564 481 564L400 673Z"  />
<glyph unicode="&#xE3;" horiz-adv-x="514" d="M366 56Q366 48 373 48Q384 48 410 62T462 90Q468 88 468 76Q468 70 465 67Q432 46 410 32T372 8T346 -4T329 -8Q320 -8 315 -3T310 16Q310 25 312 40T319 74T329 114T341 155L338 157Q320 128 295 99T242 46T185 7T132 -8Q110 -8 94 1T68 26T54 61T49 99Q49 184 82 257T168 385T284 470T406 501Q422 501 444 499T481 492Q487 490 487 484Q478 461 466 424T440 344T413 256T390 171T373 100T366 56ZM421 450Q421 454 416 456Q409 458 401 458T377 459Q321 459 272 433T185 361T126 258T104 135Q104 97 117 69T160 40Q181 40 206 54T255 91T301 139T338 190Q347 205 358 234T379 298T399 364T414 420L421 450ZM541 690Q526 652 503 630T451 607Q432 607 416 613T373 634Q353 646 339 652T309 658Q293 658 276 647T246 607Q227 607 227 615Q262 695 316 695Q337 695 353 688T389 669Q407 658 424 650T458 642Q478 642 494 655T524 699Q541 699 541 690Z"  />
<glyph unicode="&#xE4;" horiz-adv-x="514" d="M366 56Q366 48 373 48Q384 48 410 62T462 90Q468 88 468 76Q468 70 465 67Q432 46 410 32T372 8T346 -4T329 -8Q320 -8 315 -3T310 16Q310 25 312 40T319 74T329 114T341 155L338 157Q320 128 295 99T242 46T185 7T132 -8Q110 -8 94 1T68 26T54 61T49 99Q49 184 82 257T168 385T284 470T406 501Q422 501 444 499T481 492Q487 490 487 484Q478 461 466 424T440 344T413 256T390 171T373 100T366 56ZM421 450Q421 454 416 456Q409 458 401 458T377 459Q321 459 272 433T185 361T126 258T104 135Q104 97 117 69T160 40Q181 40 206 54T255 91T301 139T338 190Q347 205 358 234T379 298T399 364T414 420L421 450ZM305 622Q287 622 280 632T273 654Q273 674 285 687T314 701Q330 701 337 692T345 670Q345 647 332 635T305 622ZM467 622Q449 622 442 632T434 654Q434 674 447 687T475 701Q492 701 499 692T507 670Q507 647 494 635T467 622Z"  />
<glyph unicode="&#xE5;" horiz-adv-x="514" d="M366 56Q366 48 373 48Q384 48 410 62T462 90Q468 88 468 76Q468 70 465 67Q432 46 410 32T372 8T346 -4T329 -8Q320 -8 315 -3T310 16Q310 25 312 40T319 74T329 114T341 155L338 157Q320 128 295 99T242 46T185 7T132 -8Q110 -8 94 1T68 26T54 61T49 99Q49 184 82 257T168 385T284 470T406 501Q422 501 444 499T481 492Q487 490 487 484Q478 461 466 424T440 344T413 256T390 171T373 100T366 56ZM421 450Q421 454 416 456Q409 458 401 458T377 459Q321 459 272 433T185 361T126 258T104 135Q104 97 117 69T160 40Q181 40 206 54T255 91T301 139T338 190Q347 205 358 234T379 298T399 364T414 420L421 450ZM339 668Q339 636 358 617T405 597Q434 597 454 617T474 668Q474 700 454 720T405 740Q377 740 358 721T339 668ZM311 669Q311 690 318 707T339 737T369 757T405 764Q445 764 472 739T500 669Q500 624 473 598T405 572Q365 572 338 598T311 669Z"  />
<glyph unicode="&#xE6;" horiz-adv-x="727" d="M132 -8Q110 -8 94 1T68 26T54 61T49 99Q49 184 82 257T168 385T284 470T406 501Q450 501 479 492Q485 491 485 484Q478 466 472 445T462 406Q545 500 648 500Q688 500 708 479T728 426Q728 388 703 359T635 307T535 269T415 244Q409 224 406 199T402 152Q402 131 405 110T419 73T448 46T495 36Q515 36 537 44T582 65T626 94T665 126Q676 126 676 107Q656 88 631 68T577 31T521 3T467 -8Q436 -8 414 4T379 35T359 78T353 127Q353 135 353 141T355 158L350 159Q324 124 296 94T241 41T186 5T132 -8ZM620 466Q591 466 560 450T502 406T453 344T420 271L424 269Q477 274 522 288T601 321T653 365T672 416Q672 466 620 466ZM421 450Q421 454 416 456Q409 458 401 458T377 459Q321 459 272 433T185 361T126 258T104 135Q104 97 117 69T160 40Q181 40 206 54T255 91T301 139T338 190Q347 205 358 234T379 298T399 364T414 420L421 450Z"  />
<glyph unicode="&#xE7;" horiz-adv-x="419" d="M346 458Q297 458 253 429T176 354T122 253T102 145Q102 131 104 113T114 77T139 47T183 35Q202 35 224 41T268 59T311 87T351 124Q356 124 358 117T361 101Q346 83 322 64T271 28T213 0T153 -11Q125 -11 105 -2T72 24T53 64T47 113Q47 183 76 252T154 377T263 466T386 500Q409 500 416 495T423 481Q423 477 421 465T416 435T409 399T401 360Q400 356 392 356Q385 356 383 359Q379 393 376 413T370 443T361 455T346 458ZM76 -92Q72 -92 72 -88L93 -62Q95 -57 100 -57Q141 -57 169 -70T197 -118Q197 -140 184 -159T147 -196T95 -226T34 -247Q30 -247 30 -242Q30 -239 31 -233T36 -226Q84 -211 118 -185T152 -126Q152 -106 131 -99T83 -92H76Z"  />
<glyph unicode="&#xE8;" horiz-adv-x="428" d="M429 426Q429 388 404 359T336 307T236 269T116 244Q110 224 107 199T103 152Q103 131 107 110T121 73T149 46T196 36Q216 36 238 44T283 65T327 94T367 126Q377 126 377 107Q357 88 332 68T278 31T222 3T169 -8Q136 -8 114 2T77 31T56 72T49 121Q49 195 75 263T145 384T241 468T349 500Q389 500 409 479T429 426ZM321 466Q292 466 261 450T203 406T155 344T122 271L125 269Q178 274 223 288T302 321T354 365T373 416Q373 466 321 466ZM251 657Q235 672 228 681T220 702Q220 713 227 719T246 726Q259 726 267 717T283 693L372 556Q372 550 358 550L251 657Z"  />
<glyph unicode="&#xE9;" horiz-adv-x="428" d="M429 426Q429 388 404 359T336 307T236 269T116 244Q110 224 107 199T103 152Q103 131 107 110T121 73T149 46T196 36Q216 36 238 44T283 65T327 94T367 126Q377 126 377 107Q357 88 332 68T278 31T222 3T169 -8Q136 -8 114 2T77 31T56 72T49 121Q49 195 75 263T145 384T241 468T349 500Q389 500 409 479T429 426ZM321 466Q292 466 261 450T203 406T155 344T122 271L125 269Q178 274 223 288T302 321T354 365T373 416Q373 466 321 466ZM301 550Q286 550 286 556L396 692Q410 709 419 717T439 726Q447 726 455 720T463 706Q463 695 453 684T426 659L301 550Z"  />
<glyph unicode="&#xEA;" horiz-adv-x="428" d="M429 426Q429 388 404 359T336 307T236 269T116 244Q110 224 107 199T103 152Q103 131 107 110T121 73T149 46T196 36Q216 36 238 44T283 65T327 94T367 126Q377 126 377 107Q357 88 332 68T278 31T222 3T169 -8Q136 -8 114 2T77 31T56 72T49 121Q49 195 75 263T145 384T241 468T349 500Q389 500 409 479T429 426ZM321 466Q292 466 261 450T203 406T155 344T122 271L125 269Q178 274 223 288T302 321T354 365T373 416Q373 466 321 466ZM377 673H373L214 564Q200 564 200 572L337 694Q352 708 360 712T379 717Q393 717 399 713T413 694L471 572Q471 564 458 564L377 673Z"  />
<glyph unicode="&#xEB;" horiz-adv-x="428" d="M429 426Q429 388 404 359T336 307T236 269T116 244Q110 224 107 199T103 152Q103 131 107 110T121 73T149 46T196 36Q216 36 238 44T283 65T327 94T367 126Q377 126 377 107Q357 88 332 68T278 31T222 3T169 -8Q136 -8 114 2T77 31T56 72T49 121Q49 195 75 263T145 384T241 468T349 500Q389 500 409 479T429 426ZM321 466Q292 466 261 450T203 406T155 344T122 271L125 269Q178 274 223 288T302 321T354 365T373 416Q373 466 321 466ZM265 622Q247 622 240 632T233 654Q233 674 245 687T274 701Q290 701 297 692T305 670Q305 647 292 635T265 622ZM427 622Q409 622 402 632T394 654Q394 674 407 687T435 701Q452 701 459 692T467 670Q467 647 454 635T427 622Z"  />
<glyph unicode="&#xEC;" horiz-adv-x="269" d="M233 485Q233 471 213 405T151 209Q108 74 108 56Q108 48 116 48Q126 48 152 61T208 93Q216 91 216 78Q216 73 213 70Q175 46 151 31T111 7T86 -5T70 -8Q59 -8 56 -2T52 16Q52 24 54 37T63 73T81 132T109 220Q122 262 133 298T153 363T166 410T171 434Q171 445 161 445Q156 445 147 442T126 433T102 422T79 411Q72 416 72 425Q72 428 72 429T74 432Q113 454 138 467T180 488T206 497T221 500Q233 500 233 485ZM128 657Q112 672 105 681T97 702Q97 713 104 719T123 726Q136 726 144 717T160 693L249 556Q249 550 235 550L128 657Z"  />
<glyph unicode="&#xED;" horiz-adv-x="269" d="M233 485Q233 471 213 405T151 209Q108 74 108 56Q108 48 116 48Q126 48 152 61T208 93Q216 91 216 78Q216 73 213 70Q175 46 151 31T111 7T86 -5T70 -8Q59 -8 56 -2T52 16Q52 24 54 37T63 73T81 132T109 220Q122 262 133 298T153 363T166 410T171 434Q171 445 161 445Q156 445 147 442T126 433T102 422T79 411Q72 416 72 425Q72 428 72 429T74 432Q113 454 138 467T180 488T206 497T221 500Q233 500 233 485ZM193 550Q178 550 178 556L288 692Q302 709 311 717T331 726Q339 726 347 720T355 706Q355 695 345 684T318 659L193 550Z"  />
<glyph unicode="&#xEE;" horiz-adv-x="269" d="M233 485Q233 471 213 405T151 209Q108 74 108 56Q108 48 116 48Q126 48 152 61T208 93Q216 91 216 78Q216 73 213 70Q175 46 151 31T111 7T86 -5T70 -8Q59 -8 56 -2T52 16Q52 24 54 37T63 73T81 132T109 220Q122 262 133 298T153 363T166 410T171 434Q171 445 161 445Q156 445 147 442T126 433T102 422T79 411Q72 416 72 425Q72 428 72 429T74 432Q113 454 138 467T180 488T206 497T221 500Q233 500 233 485ZM269 673H265L106 564Q92 564 92 572L229 694Q244 708 252 712T271 717Q285 717 291 713T305 694L363 572Q363 564 350 564L269 673Z"  />
<glyph unicode="&#xEF;" horiz-adv-x="269" d="M233 485Q233 471 213 405T151 209Q108 74 108 56Q108 48 116 48Q126 48 152 61T208 93Q216 91 216 78Q216 73 213 70Q175 46 151 31T111 7T86 -5T70 -8Q59 -8 56 -2T52 16Q52 24 54 37T63 73T81 132T109 220Q122 262 133 298T153 363T166 410T171 434Q171 445 161 445Q156 445 147 442T126 433T102 422T79 411Q72 416 72 425Q72 428 72 429T74 432Q113 454 138 467T180 488T206 497T221 500Q233 500 233 485ZM165 622Q147 622 140 632T133 654Q133 674 145 687T174 701Q190 701 197 692T205 670Q205 647 192 635T165 622ZM327 622Q309 622 302 632T294 654Q294 674 307 687T335 701Q352 701 359 692T367 670Q367 647 354 635T327 622Z"  />
<glyph unicode="&#xF0;" horiz-adv-x="454" d="M46 124Q46 160 57 202T87 285T134 365T193 434T261 481T334 499Q355 499 371 492T399 472Q398 508 384 548T344 625L225 573Q219 573 215 579T210 595L328 645Q313 663 286 687T232 724Q230 726 230 728Q230 734 243 738Q275 723 308 702T362 659L479 711Q486 711 490 704T495 688L378 639Q455 549 455 385Q455 314 430 243T362 114T263 20T144 -17Q114 -17 95 -5T65 28T50 73T46 124ZM98 150Q98 124 102 102T114 62T137 36T171 26Q223 26 265 57T338 134T384 232T400 328Q400 351 396 374T382 416T356 447T315 459Q271 459 232 431T163 359T116 259T98 150Z"  />
<glyph unicode="&#xF1;" horiz-adv-x="540" d="M174 433Q174 444 165 444Q160 444 151 441T130 432T106 420T83 409Q76 414 76 425Q76 429 79 432Q118 454 143 467T185 488T210 497T225 500Q232 500 234 495T237 482Q237 477 233 458T220 411T200 348T176 276L179 275Q209 315 250 355T334 427T418 480T487 500Q504 500 509 493T515 470Q515 462 510 445T495 396T469 318T431 209Q408 140 397 102T386 54Q386 46 394 46Q405 46 430 60T485 92Q488 91 491 88T494 78Q494 73 491 70Q453 46 429 31T388 7T362 -5T345 -8Q325 -8 325 18Q325 26 328 39T338 74T357 132T386 220Q399 260 411 296T432 360T446 408T452 432Q452 439 450 442T439 446Q423 446 399 435T348 405T292 363T239 314T195 266T166 224Q154 195 144 162T120 81Q116 67 111 45T103 4L51 -3Q45 -3 43 2Q52 29 65 69T93 156T122 248T148 334T167 399T174 433ZM538 690Q523 652 500 630T448 607Q429 607 413 613T370 634Q350 646 336 652T306 658Q290 658 273 647T243 607Q224 607 224 615Q259 695 313 695Q334 695 350 688T386 669Q404 658 421 650T455 642Q475 642 491 655T521 699Q538 699 538 690Z"  />
<glyph unicode="&#xF2;" horiz-adv-x="473" d="M48 124Q48 160 58 202T88 285T135 365T195 434T265 481T344 499Q373 499 393 485T425 450T442 402T448 352Q448 317 437 276T407 194T360 115T299 48T227 1T146 -17Q116 -17 97 -5T67 28T52 73T48 124ZM100 150Q100 124 104 102T116 62T139 36T173 26Q225 26 267 56T337 132T381 230T397 325Q397 348 393 371T379 413T353 444T312 456Q268 456 229 429T162 357T117 259T100 150ZM244 657Q228 672 221 681T213 702Q213 713 220 719T239 726Q252 726 260 717T276 693L365 556Q365 550 351 550L244 657Z"  />
<glyph unicode="&#xF3;" horiz-adv-x="473" d="M48 124Q48 160 58 202T88 285T135 365T195 434T265 481T344 499Q373 499 393 485T425 450T442 402T448 352Q448 317 437 276T407 194T360 115T299 48T227 1T146 -17Q116 -17 97 -5T67 28T52 73T48 124ZM100 150Q100 124 104 102T116 62T139 36T173 26Q225 26 267 56T337 132T381 230T397 325Q397 348 393 371T379 413T353 444T312 456Q268 456 229 429T162 357T117 259T100 150ZM333 550Q318 550 318 556L428 692Q442 709 451 717T471 726Q479 726 487 720T495 706Q495 695 485 684T458 659L333 550Z"  />
<glyph unicode="&#xF4;" horiz-adv-x="473" d="M48 124Q48 160 58 202T88 285T135 365T195 434T265 481T344 499Q373 499 393 485T425 450T442 402T448 352Q448 317 437 276T407 194T360 115T299 48T227 1T146 -17Q116 -17 97 -5T67 28T52 73T48 124ZM100 150Q100 124 104 102T116 62T139 36T173 26Q225 26 267 56T337 132T381 230T397 325Q397 348 393 371T379 413T353 444T312 456Q268 456 229 429T162 357T117 259T100 150ZM388 673H384L225 564Q211 564 211 572L348 694Q363 708 371 712T390 717Q404 717 410 713T424 694L482 572Q482 564 469 564L388 673Z"  />
<glyph unicode="&#xF5;" horiz-adv-x="473" d="M48 124Q48 160 58 202T88 285T135 365T195 434T265 481T344 499Q373 499 393 485T425 450T442 402T448 352Q448 317 437 276T407 194T360 115T299 48T227 1T146 -17Q116 -17 97 -5T67 28T52 73T48 124ZM100 150Q100 124 104 102T116 62T139 36T173 26Q225 26 267 56T337 132T381 230T397 325Q397 348 393 371T379 413T353 444T312 456Q268 456 229 429T162 357T117 259T100 150ZM535 690Q520 652 497 630T445 607Q426 607 410 613T367 634Q347 646 333 652T303 658Q287 658 270 647T240 607Q221 607 221 615Q256 695 310 695Q331 695 347 688T383 669Q401 658 418 650T452 642Q472 642 488 655T518 699Q535 699 535 690Z"  />
<glyph unicode="&#xF6;" horiz-adv-x="473" d="M48 124Q48 160 58 202T88 285T135 365T195 434T265 481T344 499Q373 499 393 485T425 450T442 402T448 352Q448 317 437 276T407 194T360 115T299 48T227 1T146 -17Q116 -17 97 -5T67 28T52 73T48 124ZM100 150Q100 124 104 102T116 62T139 36T173 26Q225 26 267 56T337 132T381 230T397 325Q397 348 393 371T379 413T353 444T312 456Q268 456 229 429T162 357T117 259T100 150ZM286 622Q268 622 261 632T254 654Q254 674 266 687T295 701Q311 701 318 692T326 670Q326 647 313 635T286 622ZM448 622Q430 622 423 632T415 654Q415 674 428 687T456 701Q473 701 480 692T488 670Q488 647 475 635T448 622Z"  />
<glyph unicode="&#xF7;" horiz-adv-x="529" d="M303 403Q303 386 292 375T265 364Q249 364 238 375T226 403Q226 418 237 429T265 441Q280 441 291 430T303 403ZM25 218V248H504V218H25ZM303 63Q303 46 292 36T265 25Q248 25 237 36T226 63Q226 79 237 90T265 101Q280 101 291 90T303 63Z"  />
<glyph unicode="&#xF8;" horiz-adv-x="473" d="M424 451Q437 429 442 403T448 352Q448 317 437 276T407 194T360 115T299 48T227 1T146 -17Q119 -17 101 -7T72 20L30 -31Q23 -31 17 -26T10 -13L59 47Q53 64 51 84T48 124Q48 160 58 202T88 285T135 365T195 434T265 481T344 499Q364 499 380 492T408 473L449 523Q457 523 462 518T468 505L424 451ZM397 325Q397 345 395 365T384 402L113 70Q121 50 135 38T173 26Q225 26 267 56T337 132T381 230T397 325ZM100 150Q100 122 104 102L370 427Q349 456 312 456Q268 456 229 429T162 357T117 259T100 150Z"  />
<glyph unicode="&#xF9;" horiz-adv-x="541" d="M392 51Q392 43 400 43Q411 43 436 56T491 87Q498 85 498 76Q498 71 495 68Q458 44 434 29T395 6T370 -5T354 -8Q344 -8 340 -2T336 16Q336 24 338 37T346 72T360 123T382 195L379 197Q347 159 308 123T228 57T151 10T88 -8Q56 -8 56 25Q56 34 58 50T67 93T88 163T124 268Q150 339 161 380T175 434Q175 445 166 445Q161 445 153 442T133 433T109 421T87 409Q80 414 80 424Q80 428 83 431Q123 454 148 467T188 488T212 498T227 500Q235 500 237 495T239 481Q239 465 222 412T170 257Q142 176 130 128T118 62Q118 55 121 49T135 43Q159 43 195 64T267 116T335 179T380 237Q394 261 405 291T427 356Q436 388 444 420T462 490L511 496Q519 496 519 489Q510 462 497 421T470 332T442 237T417 150T399 83T392 51ZM238 657Q222 672 215 681T207 702Q207 713 214 719T233 726Q246 726 254 717T270 693L359 556Q359 550 345 550L238 657Z"  />
<glyph unicode="&#xFA;" horiz-adv-x="541" d="M392 51Q392 43 400 43Q411 43 436 56T491 87Q498 85 498 76Q498 71 495 68Q458 44 434 29T395 6T370 -5T354 -8Q344 -8 340 -2T336 16Q336 24 338 37T346 72T360 123T382 195L379 197Q347 159 308 123T228 57T151 10T88 -8Q56 -8 56 25Q56 34 58 50T67 93T88 163T124 268Q150 339 161 380T175 434Q175 445 166 445Q161 445 153 442T133 433T109 421T87 409Q80 414 80 424Q80 428 83 431Q123 454 148 467T188 488T212 498T227 500Q235 500 237 495T239 481Q239 465 222 412T170 257Q142 176 130 128T118 62Q118 55 121 49T135 43Q159 43 195 64T267 116T335 179T380 237Q394 261 405 291T427 356Q436 388 444 420T462 490L511 496Q519 496 519 489Q510 462 497 421T470 332T442 237T417 150T399 83T392 51ZM341 550Q326 550 326 556L436 692Q450 709 459 717T479 726Q487 726 495 720T503 706Q503 695 493 684T466 659L341 550Z"  />
<glyph unicode="&#xFB;" horiz-adv-x="541" d="M392 51Q392 43 400 43Q411 43 436 56T491 87Q498 85 498 76Q498 71 495 68Q458 44 434 29T395 6T370 -5T354 -8Q344 -8 340 -2T336 16Q336 24 338 37T346 72T360 123T382 195L379 197Q347 159 308 123T228 57T151 10T88 -8Q56 -8 56 25Q56 34 58 50T67 93T88 163T124 268Q150 339 161 380T175 434Q175 445 166 445Q161 445 153 442T133 433T109 421T87 409Q80 414 80 424Q80 428 83 431Q123 454 148 467T188 488T212 498T227 500Q235 500 237 495T239 481Q239 465 222 412T170 257Q142 176 130 128T118 62Q118 55 121 49T135 43Q159 43 195 64T267 116T335 179T380 237Q394 261 405 291T427 356Q436 388 444 420T462 490L511 496Q519 496 519 489Q510 462 497 421T470 332T442 237T417 150T399 83T392 51ZM392 673H388L229 564Q215 564 215 572L352 694Q367 708 375 712T394 717Q408 717 414 713T428 694L486 572Q486 564 473 564L392 673Z"  />
<glyph unicode="&#xFC;" horiz-adv-x="541" d="M392 51Q392 43 400 43Q411 43 436 56T491 87Q498 85 498 76Q498 71 495 68Q458 44 434 29T395 6T370 -5T354 -8Q344 -8 340 -2T336 16Q336 24 338 37T346 72T360 123T382 195L379 197Q347 159 308 123T228 57T151 10T88 -8Q56 -8 56 25Q56 34 58 50T67 93T88 163T124 268Q150 339 161 380T175 434Q175 445 166 445Q161 445 153 442T133 433T109 421T87 409Q80 414 80 424Q80 428 83 431Q123 454 148 467T188 488T212 498T227 500Q235 500 237 495T239 481Q239 465 222 412T170 257Q142 176 130 128T118 62Q118 55 121 49T135 43Q159 43 195 64T267 116T335 179T380 237Q394 261 405 291T427 356Q436 388 444 420T462 490L511 496Q519 496 519 489Q510 462 497 421T470 332T442 237T417 150T399 83T392 51ZM302 622Q284 622 277 632T270 654Q270 674 282 687T311 701Q327 701 334 692T342 670Q342 647 329 635T302 622ZM464 622Q446 622 439 632T431 654Q431 674 444 687T472 701Q489 701 496 692T504 670Q504 647 491 635T464 622Z"  />
<glyph unicode="&#xFD;" horiz-adv-x="453" d="M138 431Q137 442 129 442Q125 442 115 438T93 429T69 417T46 405Q39 410 39 420Q39 425 42 427Q77 449 100 463T139 485T161 497T171 500Q184 500 187 491T192 467Q194 452 196 420T202 348T208 265T214 182T218 113T220 70Q220 57 227 57Q318 187 361 281T405 418Q405 450 379 464V468Q381 470 389 475T406 485T424 495T438 500Q449 500 457 489T465 461Q465 426 444 375T388 263T313 139T232 17Q163 -102 96 -162T-44 -223Q-53 -223 -53 -211Q-53 -204 -52 -190T-47 -157T-40 -119T-31 -79Q-27 -75 -23 -75Q-14 -75 -14 -80Q-10 -131 -4 -151T14 -172Q36 -172 63 -152T115 -102T156 -43T173 9Q173 32 171 66T167 141T160 224T153 306T145 378T138 431ZM310 550Q295 550 295 556L405 692Q419 709 428 717T448 726Q456 726 464 720T472 706Q472 695 462 684T435 659L310 550Z"  />
<glyph unicode="&#xFE;" horiz-adv-x="482" d="M96 47Q96 40 102 39Q110 36 127 34T160 32Q214 32 259 58T338 127T389 226T408 344Q408 359 406 377T398 411T381 437T351 448Q325 448 300 433T252 396T210 346T175 295Q166 280 157 255T138 200T120 141T106 86L96 47ZM77 153Q101 233 122 305T163 446T201 580T236 712Q236 716 234 717T223 719Q215 719 195 719T151 716Q148 717 148 724Q148 730 151 732Q179 738 205 743T250 753T282 759T296 761Q303 761 303 752Q291 713 276 663T243 559T208 448T174 338L178 337Q196 365 219 394T268 446T323 485T381 500Q402 500 417 490T441 463T455 426T460 386Q460 312 434 242T365 116T267 27T152 -7Q132 -7 115 -7T82 -5Q59 -86 50 -123T41 -171Q41 -176 43 -180T52 -187T73 -195T111 -205L129 -209Q132 -210 132 -217Q132 -221 129 -221Q98 -219 72 -219T15 -218Q-17 -218 -39 -218T-93 -221Q-96 -221 -96 -217Q-96 -210 -93 -209L-75 -204Q-43 -195 -33 -190T-16 -169Q-12 -156 -2 -121T22 -40T49 57T77 153Z"  />
<glyph unicode="&#xFF;" horiz-adv-x="453" d="M138 431Q137 442 129 442Q125 442 115 438T93 429T69 417T46 405Q39 410 39 420Q39 425 42 427Q77 449 100 463T139 485T161 497T171 500Q184 500 187 491T192 467Q194 452 196 420T202 348T208 265T214 182T218 113T220 70Q220 57 227 57Q318 187 361 281T405 418Q405 450 379 464V468Q381 470 389 475T406 485T424 495T438 500Q449 500 457 489T465 461Q465 426 444 375T388 263T313 139T232 17Q163 -102 96 -162T-44 -223Q-53 -223 -53 -211Q-53 -204 -52 -190T-47 -157T-40 -119T-31 -79Q-27 -75 -23 -75Q-14 -75 -14 -80Q-10 -131 -4 -151T14 -172Q36 -172 63 -152T115 -102T156 -43T173 9Q173 32 171 66T167 141T160 224T153 306T145 378T138 431ZM237 622Q219 622 212 632T205 654Q205 674 217 687T246 701Q262 701 269 692T277 670Q277 647 264 635T237 622ZM399 622Q381 622 374 632T366 654Q366 674 379 687T407 701Q424 701 431 692T439 670Q439 647 426 635T399 622Z"  />
<glyph unicode="&#x131;" horiz-adv-x="269" d="M233 485Q233 471 213 405T151 209Q108 74 108 56Q108 48 116 48Q126 48 152 61T208 93Q216 91 216 78Q216 73 213 70Q175 46 151 31T111 7T86 -5T70 -8Q59 -8 56 -2T52 16Q52 24 54 37T63 73T81 132T109 220Q122 262 133 298T153 363T166 410T171 434Q171 445 161 445Q156 445 147 442T126 433T102 422T79 411Q72 416 72 425Q72 428 72 429T74 432Q113 454 138 467T180 488T206 497T221 500Q233 500 233 485Z"  />
<glyph unicode="&#x152;" horiz-adv-x="966" d="M160 234Q160 193 168 154T196 84T245 33T318 14Q369 14 410 35T484 90T540 169T579 260T602 353T610 437Q610 477 602 515T576 581T528 627T455 645Q385 645 331 606T238 507T180 374T160 234ZM529 2Q517 2 502 2T470 2T439 1T413 -1Q390 -9 364 -14T300 -19Q244 -19 206 0T145 53T111 129T100 221Q100 269 111 321T145 423T199 520T271 600T360 655T465 676Q488 676 509 673T554 659Q564 658 583 658T623 657T661 656T684 656Q703 656 738 656T813 657T892 659T958 662Q966 662 966 656L961 632Q959 622 956 607T949 575T943 543T939 517Q938 514 933 514Q927 514 926 517Q924 552 922 577T913 613Q911 617 906 619T886 623T848 626T784 627Q766 627 739 627T684 625T631 623T590 620Q605 608 618 588T641 543T656 489T662 429Q662 414 661 396T658 364H712Q756 364 780 365T817 368T834 375T845 388Q853 399 861 416T879 454Q881 458 886 458Q892 458 892 454Q875 389 865 338T846 235Q845 231 838 231Q832 231 832 235Q831 258 830 279T827 312Q825 320 822 324T808 331T773 333T709 334H652Q644 292 630 250T593 170T539 97T467 38V31H663Q733 31 774 35T825 45Q838 56 854 86T891 158Q893 162 900 162Q906 162 906 158Q903 147 898 128T886 89T876 51T869 26L863 2Q861 -4 853 -4Q827 -2 780 -1T684 1T591 2T529 2Z"  />
<glyph unicode="&#x153;" horiz-adv-x="730" d="M731 426Q731 388 706 359T638 307T538 269T417 244Q412 224 409 199T405 152Q405 131 408 110T422 73T451 46T498 36Q518 36 540 44T585 65T629 94T668 126Q679 126 679 107Q659 88 634 68T580 31T524 3T470 -8Q438 -8 417 3T384 33T366 79T361 136Q341 104 317 76T264 28T206 -5T142 -17Q113 -17 95 -5T67 28T52 73T48 124Q48 160 58 202T87 285T131 365T189 434T257 481T332 499Q360 499 378 486T409 452T426 406T432 357Q474 421 531 460T651 500Q691 500 711 479T731 426ZM98 150Q98 124 101 102T113 62T135 36T169 26Q219 26 258 56T326 132T368 230T383 325Q383 348 380 371T367 413T341 444T301 456Q259 456 222 429T158 357T114 259T98 150ZM623 466Q594 466 563 450T505 406T456 344T423 271L427 269Q480 274 525 288T604 321T656 365T675 416Q675 466 623 466Z"  />
<glyph unicode="&#x160;" horiz-adv-x="507" d="M220 20Q253 20 282 27T334 49T369 87T382 144Q382 194 352 235T278 313Q255 332 234 352T195 395T167 444T156 502Q156 547 177 579T232 632T305 662T383 672Q449 672 514 657Q517 655 517 650Q515 639 513 621T509 583T505 543T501 508Q501 504 492 504Q486 504 485 506Q479 555 475 578T465 615Q460 626 435 633T373 641Q339 641 310 633T259 610T225 570T213 514Q213 490 221 469T243 428T277 389T318 348Q342 326 364 304T403 259T430 210T441 157Q441 111 420 79T366 26T291 -4T207 -14Q165 -14 125 -8T53 9Q49 11 49 16L76 181Q77 185 85 185Q92 185 92 182Q94 147 95 124T99 85T103 62T109 48Q117 38 149 29T220 20ZM381 761H385L541 850Q554 850 554 841L426 743Q409 729 401 725T381 720Q367 720 361 724T347 742L282 841Q282 850 296 850L381 761Z"  />
<glyph unicode="&#x161;" horiz-adv-x="396" d="M349 369Q343 408 339 429T328 461T313 474T290 476Q269 476 247 472T206 458T175 431T163 389Q163 353 180 327T232 268Q269 233 294 199T320 128Q320 91 303 65T258 23T195 0T122 -8Q102 -8 83 -7T50 -2T28 5T19 16Q19 24 26 59T44 137Q47 140 55 140Q61 140 61 136Q63 90 64 69T69 41Q76 30 98 25T142 20Q161 20 182 23T222 37T253 66T265 114Q265 149 245 176T189 236Q156 266 133 299T110 372Q110 407 127 431T172 472T232 495T295 502Q310 502 324 501T351 499T371 495T382 488Q382 485 380 473T376 443T370 407T364 370Q363 368 362 368T356 367Q351 367 349 369ZM286 625H289L449 735Q463 735 463 726L326 605Q311 591 303 586T284 581Q270 581 264 585T250 605L191 726Q191 735 205 735L286 625Z"  />
<glyph unicode="&#x178;" horiz-adv-x="583" d="M278 252Q269 290 258 336T234 429T209 520T186 600Q183 611 179 617T164 628L105 647Q103 648 103 650T103 653Q103 655 104 658T107 662Q133 659 156 658T209 656Q233 656 266 657T329 662Q332 662 332 655Q332 649 329 647L312 643Q288 637 274 634T253 627T244 619T242 610Q242 605 245 591T252 556T262 514T272 471L318 289H322Q362 339 403 394T479 496T534 577T556 616Q556 623 543 627T490 642L469 647Q467 648 467 655Q467 662 471 662Q504 658 530 657T577 656Q600 656 629 657T688 662Q690 662 690 655Q690 648 687 647L671 642Q653 636 642 632T623 624T612 616T603 607Q579 575 545 529T472 433T395 335T327 249Q323 234 316 203T301 138T288 78T282 46Q282 39 294 34T342 17L369 9Q372 7 372 3Q372 -4 368 -4Q335 0 309 1T247 2Q230 2 217 2T191 1T166 -1T137 -4Q134 -4 134 3Q134 9 138 10L152 14Q177 21 191 25T212 34T221 42T225 51Q241 106 254 156T278 252ZM347 736Q329 736 322 746T315 767Q315 788 327 801T356 814Q372 814 379 806T387 784Q387 761 374 749T347 736ZM515 736Q498 736 491 746T483 767Q483 788 496 801T524 814Q541 814 548 806T556 784Q556 761 543 749T515 736Z"  />
<glyph unicode="&#x17D;" horiz-adv-x="571" d="M582 640Q560 612 525 568T448 469T360 355T270 237T187 125T119 32Q207 32 267 33T364 36T420 41T441 47Q449 58 459 77T484 131L492 149Q494 153 501 153Q506 153 506 149Q504 140 501 123T495 88T488 52T483 24L480 2Q478 -4 470 -4Q444 -2 398 -1T303 1T212 2T150 2Q122 2 94 1T36 -4Q33 -4 33 0Q33 3 33 8T36 17Q105 103 173 190T302 358T415 508T502 627Q407 627 354 626T272 623T236 619T224 614Q216 606 207 589T181 537L171 515Q169 511 161 511Q157 511 157 515Q159 525 162 541T169 575T176 610T181 638L184 656Q184 662 194 662Q220 660 263 659T352 657T436 656T495 656Q513 656 536 657T581 661Q585 661 585 655L582 640ZM398 761H402L558 850Q571 850 571 841L443 743Q426 729 418 725T398 720Q384 720 378 724T364 742L299 841Q299 850 313 850L398 761Z"  />
<glyph unicode="&#x17E;" horiz-adv-x="423" d="M99 386Q93 386 87 389T81 397Q94 432 102 451T117 480T130 491T145 493Q155 493 186 490T254 482T327 474T384 470Q403 470 417 477T450 500Q458 500 459 495T462 483L457 478Q435 457 403 422T332 345T255 259T180 174T117 101T75 50Q147 18 206 1T294 -17Q310 -17 323 -8T357 27L368 40Q373 40 377 36T381 28Q371 14 358 -2T329 -33T299 -57T270 -67Q253 -67 226 -60T166 -42T98 -15T30 16L17 19V27Q48 63 92 115T186 223T283 333T370 427Q303 427 249 434T155 442Q133 442 121 427T99 386ZM307 625H310L470 735Q484 735 484 726L347 605Q332 591 324 586T305 581Q291 581 285 585T271 605L212 726Q212 735 226 735L307 625Z"  />
<glyph unicode="&#x192;" horiz-adv-x="529" d="M124 277Q120 277 120 282L125 303Q126 309 131 309H252L285 449Q296 496 314 536T356 607T409 654T475 672Q497 672 512 669T527 658Q527 654 525 639T519 604T512 566T505 534Q504 530 498 530Q490 530 490 533L487 569Q485 593 484 608T479 631T472 641T460 644Q415 644 384 594T335 461L301 309H431Q436 309 436 303L431 284Q430 277 424 277H294Q283 232 275 197T260 134T246 83T232 37Q216 -14 198 -61T155 -144T99 -201T27 -223Q-14 -223 -14 -209Q-14 -206 -13 -194T-10 -164T-5 -125T2 -84Q5 -81 10 -81Q17 -81 18 -85Q22 -118 25 -138T33 -170T42 -186T56 -191Q74 -191 91 -178T123 -141T150 -88T172 -22Q191 46 208 119T245 277H124Z"  />
<glyph unicode="&#x2C6;" horiz-adv-x="490" d="M375 673H371L212 564Q198 564 198 572L335 694Q350 708 358 712T377 717Q391 717 397 713T411 694L469 572Q469 564 456 564L375 673Z"  />
<glyph unicode="&#x2DC;" horiz-adv-x="490" d="M504 690Q489 652 466 630T414 607Q395 607 379 613T336 634Q316 646 302 652T272 658Q256 658 239 647T209 607Q190 607 190 615Q225 695 279 695Q300 695 316 688T352 669Q370 658 387 650T421 642Q441 642 457 655T487 699Q504 699 504 690Z"  />
<glyph unicode="&#x2013;" horiz-adv-x="529" d="M73 273H492L483 241H64L73 273Z"  />
<glyph unicode="&#x2014;" horiz-adv-x="882" d="M73 273H857L848 241H64L73 273Z"  />
<glyph unicode="&#x2018;" horiz-adv-x="216" d="M183 533Q175 517 168 509T148 501Q127 501 127 521Q127 532 134 543T159 577L262 709Q275 709 275 705L183 533Z"  />
<glyph unicode="&#x2019;" horiz-adv-x="216" d="M210 676Q218 693 225 701T245 709Q266 709 266 688Q266 677 259 666T234 632L131 501Q118 501 118 505L210 676Z"  />
<glyph unicode="&#x201A;" horiz-adv-x="216" d="M78 73Q86 87 94 96T114 105Q134 105 134 84Q134 74 128 63T103 28L0 -103Q-14 -103 -14 -99L78 73Z"  />
<glyph unicode="&#x201C;" horiz-adv-x="363" d="M183 533Q174 517 167 509T148 501Q127 501 127 521Q127 532 134 543T159 577L262 709Q275 709 275 705L183 533ZM314 533Q305 517 298 509T278 501Q258 501 258 521Q258 532 265 543T289 577L392 709Q406 709 406 705L314 533Z"  />
<glyph unicode="&#x201D;" horiz-adv-x="363" d="M340 676Q348 692 356 700T375 709Q396 709 396 688Q396 677 390 666T365 632L262 501Q248 501 248 505L340 676ZM210 676Q218 690 225 699T245 709Q266 709 266 688Q266 677 259 666T234 632L131 501Q118 501 118 505L210 676Z"  />
<glyph unicode="&#x201E;" horiz-adv-x="363" d="M209 73Q217 88 224 96T244 105Q265 105 265 84Q265 74 258 63T233 28L130 -103Q117 -103 117 -99L209 73ZM78 73Q86 87 94 96T114 105Q134 105 134 84Q134 74 128 63T103 28L0 -103Q-14 -103 -14 -99L78 73Z"  />
<glyph unicode="&#x2020;" horiz-adv-x="529" d="M375 382Q475 382 528 388Q523 376 519 362T514 335Q488 337 451 338T365 340H329Q291 201 258 70T190 -197Q183 -196 179 -195T165 -194Q154 -194 149 -195T136 -197Q176 -61 211 70T283 340H248Q198 340 159 339T94 335Q99 343 103 361T108 388Q133 385 171 384T259 382H294Q312 451 331 522T364 660Q368 658 373 657T389 656Q398 656 405 657T417 660Q397 593 378 522T340 382H375Z"  />
<glyph unicode="&#x2021;" horiz-adv-x="529" d="M297 407H240Q202 407 167 406T108 402Q112 413 115 425T120 449Q143 447 177 446T250 444H307L321 497Q332 538 342 579T361 661Q369 660 374 660T387 659Q395 659 399 659T413 661Q399 620 388 579T365 497L351 444H408Q446 444 482 445T540 449Q535 435 532 425T528 402Q507 404 472 405T398 407H341L249 58H306Q344 58 379 59T439 63Q434 52 431 40T425 16Q402 18 368 19T296 21H239L225 -32Q214 -73 204 -114T186 -196Q177 -194 173 -194T160 -194Q152 -194 148 -194T134 -196Q148 -155 159 -114T181 -32L195 21H138Q100 21 64 20T5 16Q12 30 14 39T19 63Q40 61 75 60T148 58H205L297 407Z"  />
<glyph unicode="&#x2022;" horiz-adv-x="522" d="M122 327Q122 361 134 391T169 443T220 477T284 490Q317 490 347 478T399 443T434 391T447 327Q447 294 434 265T399 213T347 178T284 165Q250 165 221 178T169 213T135 264T122 327Z"  />
<glyph unicode="&#x2026;" horiz-adv-x="980" d="M156 -19Q135 -19 125 -6T114 23Q114 49 128 65T161 81Q181 81 191 69T202 40Q202 12 187 -3T156 -19ZM460 -19Q439 -19 428 -6T417 23Q417 49 432 65T465 81Q485 81 495 69T506 40Q506 12 491 -3T460 -19ZM763 -19Q743 -19 732 -6T721 23Q721 49 736 65T768 81Q788 81 798 69T809 40Q809 12 795 -3T763 -19Z"  />
<glyph unicode="&#x2030;" horiz-adv-x="1097" d="M698 654H738L164 0H122L698 654ZM150 422Q150 458 161 500T194 578T245 639T313 664Q359 664 378 639T398 571Q398 535 387 493T354 414T302 353T236 328Q190 328 170 356T150 422ZM194 432Q194 400 202 376T235 351Q262 351 283 373T320 429T344 500T353 570Q353 599 344 621T309 644Q279 644 258 620T222 562T201 492T194 432ZM461 79Q461 115 472 157T504 235T555 296T623 321Q670 321 689 296T709 228Q709 192 698 150T665 71T613 10T547 -15Q501 -15 481 13T461 79ZM505 89Q505 57 513 33T546 8Q572 8 593 30T630 86T654 157T663 227Q663 241 661 254T654 278T641 295T619 301Q590 301 569 277T533 219T512 149T505 89ZM763 79Q763 115 774 157T807 235T858 296T926 321Q973 321 992 296T1011 228Q1011 192 1000 150T967 71T916 10T850 -15Q804 -15 784 13T763 79ZM808 89Q808 57 815 33T849 8Q875 8 896 30T933 86T957 157T966 227Q966 256 957 278T922 301Q893 301 872 277T836 219T815 149T808 89Z"  />
<glyph unicode="&#x2039;" horiz-adv-x="297" d="M94 250Q94 255 97 261T114 282L246 438Q250 442 255 442H270Q272 442 272 439Q231 382 205 347T165 290T146 260T141 246Q141 240 143 230T152 199T168 147T194 67Q194 64 190 64H176Q171 64 170 68L102 224Q97 235 96 240T94 250Z"  />
<glyph unicode="&#x203A;" horiz-adv-x="297" d="M238 256Q238 251 235 244T219 223L86 68Q82 64 77 64H62Q60 64 60 67Q102 124 127 159T167 216T186 246T191 260Q191 265 189 276T180 307T164 359T138 439Q138 442 142 442H156Q162 442 163 438L230 281Q235 270 236 265T238 256Z"  />
<glyph unicode="&#x20AC;" horiz-adv-x="529" d="M474 676Q500 676 521 674T565 667Q569 665 569 661Q566 648 562 628T555 587T548 545T542 510Q542 506 533 506Q526 506 526 508Q524 528 522 547T517 583T512 612T507 630Q501 641 489 645T453 649Q415 649 377 633T305 586T244 512T198 415H465Q471 415 471 410L465 389Q464 384 457 384H187Q179 363 176 338T170 290H420Q426 290 426 285L420 265Q417 260 412 260H168Q168 145 205 80T324 15Q376 15 411 29T475 64Q482 68 484 68Q487 68 489 64T491 55Q491 53 487 49Q449 17 408 -1T312 -19Q255 -19 217 2T156 58T123 139T113 235Q113 243 113 247T114 260H39Q35 260 35 264L39 285Q41 290 45 290H117Q118 300 120 313T124 339T130 364T137 384H80Q76 384 76 388L82 410Q83 415 88 415H147Q171 475 204 523T279 605T370 657T474 676Z"  />
<glyph unicode="&#x2122;" horiz-adv-x="804" d="M285 657Q309 657 338 657T397 660Q401 660 401 658V581Q401 579 397 579Q394 579 394 580L389 599Q387 607 384 615T377 629Q372 635 364 637T339 639H304Q303 620 303 600T303 561V470Q303 441 303 418T305 379Q305 377 309 374T330 365L351 357Q352 357 352 354Q352 349 351 349Q331 351 316 351T284 352Q267 352 252 352T215 349Q214 349 214 354Q214 357 215 357L237 365Q254 371 258 374T262 379Q264 394 264 417T265 470V561Q265 580 265 600T264 639H229Q209 639 201 637T189 628Q186 623 183 615T178 599L173 580Q173 579 170 579Q165 579 165 581V658Q165 660 170 660Q199 658 230 658T285 657ZM503 378Q503 375 507 373T536 362L548 358Q550 357 550 354Q550 349 548 349Q531 351 516 351T488 352Q474 352 462 352T435 349Q433 349 433 354Q433 357 435 358L447 362Q467 369 471 372T477 378Q481 408 486 446T495 520T501 584T504 622Q504 629 500 635T476 648L466 651Q464 651 464 655Q464 660 466 660Q483 658 506 658T546 657Q555 630 565 600T586 539T608 479T632 422Q640 443 651 471T674 532T697 596T718 657Q735 657 759 657T800 660Q802 660 802 656Q802 652 800 651L791 648Q768 640 764 636T759 624Q759 611 761 576T767 500T773 425T779 378Q780 375 784 373T808 362L819 358Q821 357 821 354Q821 349 819 349Q802 351 788 351T760 352Q746 352 731 352T698 349Q696 349 696 354Q696 357 698 358L711 362Q733 369 737 372T742 378Q742 388 740 421T735 493T729 564T725 607H723Q712 581 700 549T674 483T649 416T627 352H620Q613 373 603 403T580 467T555 537T528 607H526Q523 580 519 546T512 479T506 419T503 378Z"  />

</font>
</defs>
</svg>
